<svg xmlns="http://www.w3.org/2000/svg" xml:space="preserve" viewBox="0 0 26.458 26.458"><path d="M.864 26.434c-.038-.366-.006-.605.151-1.146.064-.22.065-.23.02-.281a1.4 1.4 0 0 1-.134-.298l-.085-.245.224-.678a21 21 0 0 1 1.685-3.834 9 9 0 0 0 .457-.883c.067-.147.246-.499.399-.782.686-1.277.859-1.941 1.01-3.885.16-2.045.306-3.644.528-5.79.285-2.752.453-4.72.582-6.82C5.808.04 5.809.038 6.096.003c.253-.03 14.865-.03 15.165.001.306.031.311-.052-.148 2.15-.302 1.444-.304 1.464-.198 1.522.065.035.488.095 1.348.189 1.21.132 1.347.163 1.698.39.13.082.33.185.445.227.306.112.563.312.676.526.076.146.084.704.109 8.496l.026 7.994-.093.168c-.173.315-.413.507-.735.588-.1.026-.316.116-.478.201-.515.27-.453.263-3.692.371-2.952.098-2.887.092-2.939.289-.11.42-.632 3.269-.635 3.463 0 .01-3.547.02-7.882.02H.88Z" style="fill:#00fcc4" transform="translate(.617 .123)"/><path d="M.864 26.434c-.038-.366-.006-.605.151-1.146.064-.22.065-.23.02-.281a1.4 1.4 0 0 1-.134-.298l-.085-.245.224-.678a21 21 0 0 1 1.685-3.834 9 9 0 0 0 .457-.883c.067-.147.246-.499.399-.782.686-1.277.859-1.941 1.01-3.885.16-2.045.306-3.644.528-5.79.285-2.752.453-4.72.582-6.82C5.808.04 5.809.038 6.096.003c.253-.03 14.865-.03 15.165.001.306.031.311-.052-.148 2.15-.302 1.444-.304 1.464-.198 1.522.065.035.488.095 1.348.189 1.21.132 1.347.163 1.698.39.13.082.33.185.445.227.306.112.563.312.676.526.076.146.084.704.109 8.496l.026 7.994-.093.168c-.173.315-.413.507-.735.588-.1.026-.316.116-.478.201-.515.27-.453.263-3.692.371-2.952.098-2.887.092-2.939.289-.11.42-.632 3.269-.635 3.463 0 .01-3.547.02-7.882.02H.88Zm5.179-2.317c0-3.5 2.43-7.038 6.053-8.808.488-.238.99-.452 1.064-.452.118 0 .957 1.598 1.415 2.695.306.733.266.722.5.138.679-1.689 1.545-3.36 3.019-5.827.276-.463.494-.85.483-.86-.01-.01-.21-.032-.442-.05-2.66-.2-5.286-.47-7.42-.765-.837-.116-.813-.131-.45.284.723.823 1.734 2.238 1.654 2.313a2 2 0 0 1-.363.132c-4.605 1.39-8.334 5.338-10.155 10.753-.172.514-.173.505.02.482.695-.081 1.664-.556 2.373-1.162.24-.204.2-.216.463.138.423.57.952 1.048 1.429 1.29.371.19.357.202.357-.3" style="fill:#486211" transform="translate(.617 .123)"/><path d="M.909 26.444c-.039-.28-.015-.51.1-.966l.109-.439-.057-.043c-.06-.046-.214-.429-.214-.533 0-.08.35-1.14.536-1.627.45-1.171.841-1.98 1.599-3.31.133-.233.265-.483.293-.556.051-.13.347-.695.461-.879.514-.829.741-1.824.922-4.05.174-2.131.31-3.608.502-5.456.244-2.352.449-4.699.54-6.191.14-2.327.143-2.338.459-2.368.375-.035 12.746-.025 14.535.012l.738.016L21.43.2c-.005.228-.389 2.192-.605 3.092-.138.573-.199.52.694.612 1.47.152 1.99.232 1.927.295-.093.094-.6.127-.852.054a3.7 3.7 0 0 0-.607-.07 5 5 0 0 1-.62-.065c-.116-.028-.364-.046-.765-.056-.748-.017-.749-.018-.875-.147-.122-.125-.169-.129-.763-.062-.41.046-.57.04-.938-.042-1.058-.234-1.966-.18-2.225.134-.328.398-.308.179-.342 3.69l-.026 2.66-.057.044c-.087.067.062.083 2.506.277.64.051.802.044.585-.025-.142-.046.487-.862.7-.908.222-.048.282.083.106.232-.085.072-.155.175-.264.393-.119.234-.163.298-.217.312-.097.025-.033.056.16.078.176.02.22.044.256.142.013.036.031.058.039.05s.004-.037-.01-.064c-.114-.23.298-.863.673-1.03.182-.082 1.047-.062 1.228.028.282.141.533.41.564.606.014.084.262.307.341.307.15 0-.089-.47-.37-.73-.24-.222-.265-.27-.163-.316.27-.125.881.446 1.033.964.045.153.32.777.366.831.199.232.296.881.144.964-.198.108-.282.002-.513-.643-.203-.57-.234-.631-.332-.666a.27.27 0 0 1-.116-.094c-.092-.142-.115-.082-.145.365-.037.542-.33.946-.898 1.238-.632.325-1.718-.168-1.853-.842-.054-.266.03-.38-1.003 1.354-1.213 2.038-2.208 4.021-2.772 5.53-.142.38-.152.462-.043.356.028-.027.032.212.025 1.33l-.01 1.365.24.36c.358.537.462.573 1.382.483.138-.014.78-.037 1.425-.053 1.665-.04 2.773-.08 2.92-.107l.318-.057c.19-.035.192-.035.333.042l.14.077.507-.048c.278-.027.572-.042.654-.034.164.017.243-.011.35-.128.124-.136.29-.191.29-.097 0 .071-.165.21-.356.301-.256.122-.394.131-3.23.223-3.337.109-3.123.093-3.134.228-.009.103-.115.715-.43 2.458-.114.638-.209 1.17-.209 1.183s-3.524.023-7.83.023H.93Zm5.16-2.313c.002-3.528 2.415-7.038 6.053-8.807.65-.316 1.007-.459 1.061-.424.143.091.956 1.671 1.374 2.671.32.763.291.753.519.182.723-1.816 1.562-3.418 3.36-6.42.215-.359.214-.362-.116-.389-3.54-.285-5.414-.478-7.723-.798-.442-.061-.61-.075-.631-.053-.033.033-.06 0 .477.623.573.667 1.52 2.001 1.461 2.058-.01.01-.168.063-.35.118-4.584 1.376-8.26 5.246-10.14 10.67-.235.678-.239.663.152.59.722-.133 1.942-.777 2.35-1.241.077-.087.098-.075.271.163.496.68 1.1 1.213 1.617 1.429.275.115.265.13.265-.372m15.967-5.422a2 2 0 0 0-.308-.048c-.268-.027-.309-.043-.677-.262-.284-.169-.468-.178-.868-.042a1.7 1.7 0 0 1-.324.084 1 1 0 0 0-.228.057c-.208.079-1.213.108-1.344.04-.27-.142-.194-.586.102-.596.187-.006.175.066.206-1.191.034-1.391.062-1.274-.314-1.316-.243-.027-.313-.463-.082-.514a1 1 0 0 0 .108-.028c.078-.026 1.1-.01 1.305.02.216.033.264.063.383.235.115.17 1.139.153 1.155-.017.015-.153 1.291-.286 1.6-.167.192.074.194.497.002.545-.117.03-.148.428-.183 2.355l-.003.159.142.055c.18.07.246.341.115.474-.094.095-.662.208-.787.157m.398-9.363c-.333-.01-1.235-.033-2.004-.05-4.741-.101-4.317-.065-4.431-.379-.066-.18-.08-3.478-.018-3.956.075-.57.085-.574 1.205-.495 1.733.122 2.179.15 3.125.2.573.03 1.428.08 1.9.11.47.03 1.152.063 1.513.074.652.02.657.02.699.083.023.036.089.112.146.17.103.105.103.107.073.222a.3.3 0 0 0-.006.183c.016.043.016.226 0 .502-.015.24-.035 1.031-.046 1.76l-.02 1.323-.066.134-.065.134-.699.002c-.384.002-.972-.006-1.306-.017" style="fill:#451" transform="translate(.617 .123)"/><path d="M.909 26.444c-.039-.28-.015-.51.1-.966l.109-.439-.057-.043c-.06-.046-.214-.429-.214-.533 0-.08.35-1.14.536-1.627.45-1.171.841-1.98 1.599-3.31.133-.233.265-.483.293-.556.058-.148.356-.711.49-.923.225-.36.373-.756.559-1.492.17-.679.207-.953.334-2.514.174-2.131.31-3.608.502-5.456.245-2.361.449-4.7.54-6.205C5.832.215 5.855.07 6.082.033c.251-.04 12.686-.035 14.612.005l.738.016L21.43.2c-.009.415-.592 3.163-.701 3.304-.078.1-.23.159-.298.115a.8.8 0 0 0-.237-.053 5 5 0 0 1-.337-.048c-.083-.016-.6-.04-1.147-.052-.978-.023-.999-.024-1.171-.091-.225-.088-.434-.111-1.737-.194a50 50 0 0 1-1.302-.094c-.283-.032-.264-.043-.646.334-.505.498-.487.352-.531 4.187-.032 2.716-.022 2.525-.135 2.5-.052-.012-.077-.009-.066.008.009.015.055.033.102.041.273.045.486.07.732.084.152.01.313.023.356.03.044.007.28.03.526.053.246.022.49.05.541.063.11.028.205.038 1.03.109 1.335.114 2.02.163 2.097.15.335-.058.751.127.751.334 0 .027.011.055.025.064.093.058.062.258-.07.451-.168.244-.46.723-1.135 1.863-.965 1.628-1.797 3.255-2.402 4.694-.159.378-.374.949-.373.988.001.067-.202.576-.23.576-.049 0-.107-.1-.196-.334-.4-1.058-1.022-2.443-1.381-3.075-.22-.388-.278-.44-.396-.351-.046.033-.04.036.054.033l.104-.003.008.802c.004.441-.004 1.807-.018 3.036l-.025 2.233.081.147c.248.448.481.712.745.844l.159.078h.883c.486-.002 1.115-.018 1.398-.038.747-.052.671-.058.68.054.013.147-.11.939-.328 2.137l-.227 1.25-.03.168H.93Zm5.164-2.414c.12-3.884 2.854-7.481 6.903-9.08l.196-.078.042.063c.347.517.95 1.707 1.334 2.637.336.81.293.794.528.2.681-1.724 1.621-3.536 3.145-6.065.464-.77.458-.742.16-.765-3.039-.237-5.12-.445-7.116-.713-1.586-.213-1.47-.256-.944.353.539.624.827 1.004 1.236 1.625.356.54.365.561.26.594-4.932 1.512-8.482 5.194-10.43 10.82-.19.543-.192.57-.052.57.626 0 1.714-.532 2.575-1.257l.097-.082.218.289c.452.596.966 1.056 1.462 1.306.396.2.366.233.386-.417m9.34-1.485a4 4 0 0 0-.462-.078c-.61-.075-.731-.12-.873-.33a3 3 0 0 0-.173-.225c-.14-.162-.208-2.162-.142-4.267.026-.835.016-.826.269-.274a17 17 0 0 1 .49 1.137c.019.044.06.146.092.227l.14.348c.296.731.346.764.47.306.06-.22.076-.066.076.746 0 .46.008 1.06.018 1.33l.017.493.22.231c.324.342.266.487-.143.356m6.573-3.955a1 1 0 0 0-.1-.028c-.066-.014-.073-.025-.059-.092.024-.11-.089-.154-.517-.205-1.071-.127-1.958-.097-2.152.072-.189.165-.764.189-.913.037-.123-.124-.036-.25.202-.294.255-.046.242.028.242-1.434 0-1.41.015-1.32-.22-1.35-.244-.03-.336-.115-.256-.24.064-.099.214-.125.667-.114l.405.009.138.15c.102.114.161.156.23.167.669.105 1.9.06 1.948-.07.039-.103.092-.128.336-.157.734-.086 1.128.104.709.342-.145.083-.14.03-.158 1.43-.02 1.399-.02 1.383.139 1.416.202.042.25.206.086.303-.085.05-.636.094-.727.058m-1.597-5.957c-.693-.054-1.386-.891-1.05-1.268.055-.062.042-.2-.042-.436-.058-.167-.055-.183.089-.42l.178-.292c.041-.068.07-.083.18-.094.122-.012.133-.02.145-.094.015-.085.025-.089.143-.054.049.014.125.01.211-.013.343-.09 1.102.111 1.178.312.014.04.06.11.102.16a.6.6 0 0 1 .093.14c.009.029.045.071.08.095.115.077.148.379.094.862-.036.315-.102.434-.41.746-.364.367-.45.399-.99.356m.557-.706c.331-.232.494-.778.308-1.029l-.151-.209c-.12-.17-.654-.256-.9-.146-.348.157-.532.555-.415.902.064.19.152.092.154-.172.006-.76.887-.976 1.149-.28.196.521-.349 1.136-.793.895-.033-.018-.077-.027-.096-.02-.055.018.063.072.25.115q.313.072.494-.056m1.874.396c-.048-.05-.1-.165-.159-.355-.284-.918-.614-1.681-.828-1.915-.178-.195-.189-.237-.055-.216.112.019.26.126.311.227.02.04.075.109.121.153.159.151.774 1.582.844 1.963.04.216-.087.293-.234.143m-4.276-1.76c0-.127.35-.6.443-.6.054 0 .036.062-.1.357l-.133.284h-.105c-.077 0-.105-.01-.105-.04m-3.481-.256c-.428-.041-.812-.08-.963-.098l-.158-.019.007-.615c.016-1.42.127-5.034.16-5.255.023-.15.032-.155.56-.295a5 5 0 0 0 .548-.174c.138-.064.341-.088.437-.05.07.027.047.115-.115.428l-.157.303-.015.943c-.008.52-.022 1.819-.03 2.888-.012 1.409-.025 1.947-.047 1.953a1.3 1.3 0 0 1-.227-.009m8.095-1.023c-.02-.02-1.515-.061-4.126-.111-2.422-.047-2.847-.066-2.911-.132-.096-.097-.042-4.188.058-4.4.044-.094.385-.1 1.548-.029.486.03 1.423.085 2.083.122s1.604.092 2.097.122 1.205.062 1.582.07c.992.02.981.014.969.53-.004.162-.01 1.046-.013 1.966-.006 1.774-.005 1.752-.132 1.824-.06.034-1.124.069-1.155.038" style="fill:#4e3723" transform="translate(.617 .123)"/><path d="M2.403 26.551c0-.151.17-1.047.294-1.55l.055-.22.175-.104c.096-.057.252-.15.346-.203.261-.151.35-.209.464-.3.057-.046.17-.127.253-.18l.15-.097.204.244c.112.133.274.31.36.394l.214.207c.051.05.294.198.327.198.008 0-.15-.166-.352-.368a10 10 0 0 1-.535-.575c-.195-.24-.215-.245-.397-.1-.402.322-1.043.677-1.624.898-.352.134-1.202.234-1.283.152a2 2 0 0 1-.1-.253l-.081-.233.16-.496c.51-1.59 1.323-3.38 2.068-4.561l.162-.26c.209-.337.44-.673.7-1.017.114-.15.207-.281.207-.291s.054-.08.12-.155c.067-.075.236-.275.377-.444 1.635-1.969 3.619-3.386 6.044-4.317l.382-.148c.03-.012.104-.037.165-.056.218-.066-.153-.584-1.464-2.043-.264-.295-.48-.555-.48-.579s-.01-.051-.02-.062c-.101-.102-.11-.346-.011-.325a92.306 92.306 0 0 0 4.066.537c.658.074.946.103 1.569.16.232.022.463.046.514.053.117.018 2.208.194 2.717.23.91.063 1.002.078 1.002.17 0 .018.03.108.067.201.076.188.066.257-.059.411a.3.3 0 0 0-.06.105c0 .016-.02.051-.045.078a1 1 0 0 0-.072.1 9 9 0 0 1-.226.377c-.042.066-.126.205-.185.308-.06.102-.144.24-.186.307a3 3 0 0 0-.118.2c-.034.07-.275.478-.354.602-.043.066-.253.432-.33.575-.04.074-.136.242-.212.375-.133.23-.228.405-.48.882a32 32 0 0 0-1.77 3.968c-.067.174-.072.166-.348-.523a41 41 0 0 0-.377-.917 18 18 0 0 0-.889-1.79c-.26-.456-.213-.44-.691-.22-.068.032-.131.057-.14.057-.038 0-.822.412-1.096.576-.998.597-1.732 1.21-2.77 2.31-.081.087-.344.4-.401.48l-.197.281c-.076.11-.15.209-.165.218a.6.6 0 0 0-.093.142 8 8 0 0 1-.188.326c-.117.194-.39.727-.511 1.003a8 8 0 0 0-.263.683.4.4 0 0 1-.039.105c-.04.079-.127.369-.238.79-.155.591-.288 1.9-.212 2.09.056.14.027.478-.04.47a2.6 2.6 0 0 1-.857-.303c-.11-.06-.208-.101-.218-.09-.022.023.231.253.28.253.018 0 .08.024.136.053.569.295.91.265.834-.072a2 2 0 0 1-.045-.255c.004-.06.005-.106.005-.448 0-.62.108-1.292.332-2.068.052-.18.1-.35.107-.379a1 1 0 0 1 .048-.134c.138-.309.17-.387.17-.413 0-.016.012-.05.026-.075.014-.026.064-.143.11-.26a2 2 0 0 1 .115-.255.3.3 0 0 0 .046-.08c.008-.022.075-.142.149-.267.154-.26.172-.233.082.123-.065.255-.112.546-.183 1.136-.062.518-.11.783-.183 1.024-.052.17-.066.279-.15 1.154-.022.235-.08.734-.13 1.11a33 33 0 0 0-.12 1.05l-.033.367h-2.29c-2.164 0-2.291-.003-2.291-.047m3.67-2.52c.12-3.885 2.854-7.482 6.903-9.082l.196-.077.042.063c.347.517.95 1.707 1.334 2.637.336.81.293.794.528.2a33 33 0 0 1 1.687-3.544c.31-.579.845-1.502 1.458-2.521.464-.77.458-.742.16-.765-3.076-.24-5.112-.444-7.222-.727-1.455-.195-1.353-.227-.908.285.982 1.129 1.742 2.244 1.568 2.3C6.8 14.39 3.34 17.98 1.386 23.62c-.188.544-.19.57-.051.57.626 0 1.714-.53 2.575-1.256l.097-.082.218.289c.452.596.966 1.056 1.462 1.306.396.2.366.233.386-.417m2.633 2.354c0-.274.042-.464.122-.561.089-.107.132-.223.197-.528.03-.144.09-.346.133-.448s.114-.325.159-.495c.093-.355.106-.386.212-.5.1-.106.126-.223.126-.565.001-.29.037-.38.153-.38.102-.001.375-.158.405-.234.14-.36.213-.45.38-.476.11-.017.303.102.303.188 0 .055.107.12.198.12.115 0 .344.287.38.474.08.42.057.791-.06.936-.09.11-.102.154-.123.477-.014.21-.035.326-.072.401-.029.058-.06.14-.07.18-.013.055-.12 1.477-.121 1.604 0 .01-.523.02-1.161.02h-1.16Zm3.72-.058c0-.252.006-.285.092-.479.141-.317.172-.576.237-2.018q.037-.802.075-.924c.077-.246-.216-.57-.433-.48-.123.052-.193.016-.305-.16a.54.54 0 0 0-.247-.235l-.145-.073.001-.254c0-.14.016-.431.033-.647s.032-.818.031-1.338c0-1.548.051-3.154.103-3.208.024-.024.215-.13.425-.236s.4-.203.422-.216q.253-.158.415-.166l.126-.006.008.802c.004.441-.004 1.807-.018 3.036l-.025 2.233.081.147c.382.69.665.91 1.207.938.603.03.881.24.466.35-.564.15-.665.291-.296.413.199.066.2.067.2.347 0 .297-.065 1.282-.12 1.832a8 8 0 0 0-.04.502v.11h-2.294zm1.338-2.715c.135-.15.066-.326-.177-.45-.316-.162-.386-.108-.153.119l.139.135-.047.082c-.11.195.082.288.238.114m1.648-1.067a4 4 0 0 0-.461-.078c-.61-.075-.731-.12-.873-.33a3 3 0 0 0-.173-.225c-.14-.162-.208-2.162-.142-4.267.026-.835.016-.826.269-.274a17 17 0 0 1 .49 1.137c.019.044.06.146.092.227l.14.348c.296.731.346.764.47.306.06-.22.076-.066.076.746 0 .46.008 1.06.018 1.33l.017.493.22.231c.324.342.266.487-.143.356m6.574-3.955a1 1 0 0 0-.1-.028c-.066-.014-.073-.025-.059-.092.02-.088-.068-.144-.276-.176l-.185-.028c-.83-.126-2.029-.09-2.204.066-.19.17-.765.196-.917.042-.123-.124-.036-.25.202-.294.255-.046.242.028.242-1.434 0-1.41.015-1.32-.22-1.35-.244-.03-.336-.115-.256-.24.064-.099.214-.125.667-.114l.405.009.138.15c.102.114.161.156.23.167.669.105 1.9.06 1.948-.07.039-.103.092-.128.336-.157.734-.086 1.128.104.709.342-.145.083-.14.03-.158 1.43-.02 1.399-.02 1.383.139 1.416.202.042.25.206.086.303-.085.05-.636.094-.727.058M4.768 16.87a7 7 0 0 1-.097-.382l-.086-.36.017-.602c.01-.331.023-.656.03-.723s.037-.42.066-.789c.078-.97.306-3.425.368-3.971l.146-1.244c.05-.426.127-1.16.17-1.631.045-.47.086-.898.093-.95.031-.22.147-1.59.185-2.193.116-1.803.22-3.147.267-3.423.028-.161.113-.514.128-.53.022-.022 2.022-.021 2.1.001l.069.02.016.903c.015.886.07 1.832.18 3.083.157 1.812.069 3.74-.176 3.834-.192.075-.272-.054-.329-.531a5 5 0 0 0-.078-.442c-.095-.387-.155-1.488-.184-3.41-.024-1.561-.035-1.66-.17-1.523-.05.05-.062.128-.084.52-.012.23-.032.346-.076.455-.078.192-.082.211-.16.754-.115.803-.288 1.626-.446 2.114a6 6 0 0 0-.136.629c-.08.49-.192.961-.274 1.147-.038.088-.065.228-.083.435a4.5 4.5 0 0 1-.257 1.103c-.085.218-.133.43-.203.9-.056.369-.094.338.433.348.56.01.592 0 .569-.18a.9.9 0 0 1 .037-.342c.03-.114.074-.353.097-.53.024-.176.066-.398.094-.494s.074-.366.103-.602c.094-.749.128-.877.21-.777.04.049.078.463.08.858.002.812.14 2.049.23 2.084.363.141.779.02.808-.234.025-.213.162-.578.282-.752.148-.213.153-.226.223-.549.065-.294.128-.454.24-.603.033-.044.085-.14.116-.214a.9.9 0 0 1 .136-.217.5.5 0 0 0 .105-.2c.015-.065.083-.244.153-.399.07-.154.149-.37.175-.48.03-.125.118-.341.237-.575.104-.207.205-.424.223-.482.019-.06.08-.2.135-.313s.124-.31.152-.441c.08-.364.246-.75.416-.96.048-.06.122-.193.164-.295s.144-.329.227-.505c.082-.177.204-.451.27-.61a4 4 0 0 1 .262-.506c.078-.12.161-.284.184-.366a2 2 0 0 1 .143-.337c.055-.103.143-.288.194-.41.05-.124.14-.298.198-.389.058-.09.132-.23.164-.311a1 1 0 0 1 .094-.187c.072-.08 1.213-.067 1.492.016q.13.038-.12.286c-.174.175-.378.53-.44.766-.046.174-.296.667-.407.8a.4.4 0 0 0-.095.162c0 .026-.053.157-.117.292a3.1 3.1 0 0 0-.275.86c-.04.306-.014.309.341.04.147-.11.28-.202.297-.204l.119-.011a.6.6 0 0 0 .176-.05c.184-.089 1.121-.173 1.121-.101 0 .05-.325.112-.598.112-.19 0-.202.008-.584.386-.476.47-.462.353-.506 4.161-.016 1.346-.033 2.46-.038 2.476-.013.039-.3.027-.635-.026a22 22 0 0 0-.487-.071 7 7 0 0 1-.288-.042l-.064-.013.021-.861.022-.93a.7.7 0 0 0-.072-.219l-.072-.15.042-.325c.083-.65.005-.985-.13-.556a2.3 2.3 0 0 1-.16.348 3.4 3.4 0 0 0-.207.468c-.098.287-.24.667-.357.957-.162.403-.183.459-.21.566a.8.8 0 0 1-.174.275 1 1 0 0 0-.145.194c0 .031-.325.016-.607-.028-.762-.12-.755-.123-.647.204.102.308.143.37.46.698.337.349.672.723.924 1.033.108.133.215.262.237.286.023.025.083.103.134.172.05.07.135.175.187.235.215.251.26.364.144.364-.035 0-.071.012-.08.027s-.04.026-.067.026c-.062 0-.267.07-.406.137a.6.6 0 0 1-.128.05.5.5 0 0 0-.107.037l-.268.112c-.15.062-.473.21-.87.401a21 21 0 0 0-.97.53 5 5 0 0 0-.292.181 1.4 1.4 0 0 1-.167.104.6.6 0 0 0-.114.08.5.5 0 0 1-.126.08c-.014 0-.101.058-.194.13a14 14 0 0 1-.346.255c-.098.069-.178.136-.178.15 0 .012-.022.03-.049.039a.4.4 0 0 0-.108.072 3 3 0 0 1-.183.15c-.127.097-.138.107-.508.46-.125.12-.266.247-.313.282-.1.075-.306.273-.476.458-.066.071-.15.157-.185.189a1 1 0 0 0-.126.14c-.067.09-.152.147-.17.116m15.621-4.237c-.693-.054-1.386-.891-1.05-1.268.055-.062.042-.2-.042-.436-.058-.167-.055-.183.089-.42l.178-.292c.041-.068.07-.083.18-.094.122-.012.133-.02.145-.094.015-.085.025-.089.143-.054.049.014.125.01.211-.013.343-.09 1.102.111 1.178.312.014.04.06.11.102.16a.6.6 0 0 1 .093.14c.009.029.045.071.08.095.115.077.148.379.094.862-.036.315-.102.434-.41.746-.364.367-.45.399-.99.356m.557-.706c.331-.232.494-.778.308-1.029l-.151-.209c-.12-.17-.654-.256-.9-.146-.348.157-.532.555-.415.902.064.19.152.092.154-.172.003-.406.116-.56.504-.682.477-.152.85.508.578 1.025-.136.258-.139.26-.518.256-.349-.003-.356-.002-.272.044.21.114.558.12.712.011m1.874.396c-.048-.05-.1-.165-.159-.355-.284-.918-.614-1.681-.828-1.915-.178-.195-.189-.237-.055-.216.112.019.26.126.311.227.02.04.075.109.121.153.159.151.774 1.582.844 1.963.04.216-.087.293-.234.143m-4.276-1.76c0-.127.35-.6.443-.6.054 0 .036.062-.1.357l-.133.284h-.105c-.077 0-.105-.01-.105-.04m-3.481-.256c-.428-.041-.812-.08-.963-.098l-.158-.019.007-.615c.016-1.42.127-5.034.16-5.255.023-.15.032-.155.56-.295a5 5 0 0 0 .548-.174c.138-.064.341-.088.437-.05.07.027.047.115-.115.428l-.157.303-.015.943c-.008.52-.022 1.819-.03 2.888-.012 1.409-.025 1.947-.047 1.953a1.3 1.3 0 0 1-.227-.009m8.095-1.023c-.02-.02-1.515-.061-4.126-.111-2.422-.047-2.847-.066-2.911-.132-.096-.097-.042-4.188.058-4.4.044-.094.385-.1 1.548-.029.486.03 1.423.085 2.083.122s1.604.092 2.097.122 1.205.062 1.582.07c.992.02.981.014.969.53-.004.162-.01 1.046-.013 1.966-.006 1.774-.005 1.752-.132 1.824-.06.034-1.124.069-1.155.038M9.94 4.888c-.154-.175-.164-1.589-.027-3.96.029-.507.056-.801.077-.83.076-.106 2.093-.069 2.093.039 0 .06-.21.704-.283.866-.036.081-.082.21-.102.288s-.06.19-.09.248c-.03.059-.125.32-.211.58-.087.26-.206.577-.264.705-.059.129-.123.3-.144.381s-.073.206-.116.277c-.042.07-.09.178-.106.238a.9.9 0 0 1-.112.227 2.3 2.3 0 0 0-.183.351c-.222.527-.406.732-.532.59M20.405 3.61c-.031-.024-.11-.04-.206-.04-.159 0-.246-.03-.302-.104-.074-.097-.044-.11.263-.11.163 0 .342-.013.398-.028.124-.035.134-.026.11.097-.031.174-.16.264-.263.185m-3.311-.335a3 3 0 0 0-.3-.023c-.11-.002-.15-.012-.142-.036.01-.032.089-.05.587-.135.13-.022.258-.048.283-.059.035-.014.046-.006.046.034 0 .077-.093.185-.177.205a.56.56 0 0 1-.297.014" style="fill:#45321b" transform="translate(.617 .123)"/><path d="M2.596 26.551c.031-.115.045-.208.095-.636.029-.25.077-.533.106-.628.029-.096.06-.246.07-.334.027-.242.041-.262.252-.374.107-.056.245-.136.307-.178a1 1 0 0 1 .13-.076c.009 0 .1-.064.203-.142s.229-.168.28-.2l.095-.058.057.06c.03.032.127.143.212.246.31.373.745.75.844.73q.043-.008-.168-.209a8.6 8.6 0 0 1-.86-.929c-.066-.081-.068-.081-.294.094-.361.278-1.013.657-1.324.77a1.4 1.4 0 0 0-.159.065 1 1 0 0 1-.145.052l-.184.057c-.165.054-.461.09-.75.09l-.315.002-.087-.247-.087-.248.194-.595c.537-1.646 1.338-3.368 2.193-4.714.046-.073.107-.17.134-.217.027-.045.109-.165.182-.265l.374-.519c.611-.848 1.649-1.995 2.343-2.588 1.176-1.006 2.434-1.803 3.692-2.34.352-.15.819-.335 1.1-.435.205-.073.284-.114.284-.145-.001-.061-.328-.513-.696-.96-.213-.26-.368-.439-1.113-1.274-.132-.148-.246-.294-.255-.323a4 4 0 0 0-.068-.2c-.056-.157-.052-.198.018-.177.102.03 1.875.279 2.681.376l.765.094c.116.015.43.05.7.08.442.047.787.083 1.99.202.438.044 1.182.106 2.69.227.55.044 1.01.09 1.02.1.125.129.188.556.093.625a.7.7 0 0 0-.085.12l-.118.198-.237.4c-.03.052-.089.149-.131.215-.073.114-.257.426-.344.583-.022.04-.082.139-.132.22-.131.213-.128.208-.416.708-1.123 1.947-1.922 3.608-2.514 5.222-.147.4-.17.444-.197.365a75 75 0 0 0-.626-1.549 20 20 0 0 0-1.045-2.052c-.077-.13-.114-.128-.44.01-2.035.856-4.015 2.54-5.078 4.316-.962 1.608-1.59 4.095-1.306 5.182.04.154-.611-.02-.962-.256-.085-.058-.234-.103-.234-.072 0 .158.71.484 1.14.525.218.021.229.005.18-.268-.076-.429-.024-1.443.107-2.056.102-.479.314-1.189.434-1.455a1 1 0 0 0 .065-.178c0-.019.01-.046.022-.06s.066-.133.12-.266c.053-.132.121-.27.15-.307l.052-.067-.014.067a8 8 0 0 0-.052.39 2 2 0 0 1-.115.525c-.099.25-.12.398-.203 1.405a70 70 0 0 1-.13 1.404c-.036.327-.09.854-.12 1.17s-.061.614-.069.662l-.013.087h-2.15c-2.035 0-2.15-.003-2.138-.047m3.46-1.987c.01-.016.016-.2.014-.41-.037-3.772 2.831-7.595 6.906-9.205l.196-.077.042.063c.347.517.95 1.707 1.334 2.637.336.81.293.794.528.2a33 33 0 0 1 1.687-3.544c.31-.579.845-1.502 1.458-2.521.464-.77.458-.742.16-.765-3.356-.261-5.674-.503-8.073-.842-.464-.065-.465-.062-.102.35.981 1.115 1.79 2.293 1.613 2.35C6.8 14.39 3.34 17.98 1.386 23.62c-.188.544-.19.57-.051.57.626 0 1.714-.53 2.575-1.256l.097-.082.218.289c.57.752 1.704 1.633 1.832 1.423m7.609-1.522c-.234-.072-.472-.232-.725-.484-.33-.329-.542-.502-.805-.656a1.6 1.6 0 0 1-.235-.155c-.02-.026-.027-.778-.022-2.65l.007-2.613.318-.165c.175-.09.37-.19.435-.222.064-.03.178-.089.253-.128a.7.7 0 0 1 .251-.077l.114-.005.008.802c.004.441-.004 1.807-.018 3.035l-.025 2.234.081.147c.13.235.325.513.44.627.08.079.107.127.107.189 0 .13-.049.164-.184.121m1.747-.497a4 4 0 0 0-.461-.078c-.61-.075-.731-.12-.873-.33a3 3 0 0 0-.173-.225c-.14-.162-.208-2.162-.142-4.267.026-.835.016-.826.269-.274a17 17 0 0 1 .49 1.137c.019.044.06.146.092.227l.14.348c.296.731.346.764.47.306.06-.22.076-.066.076.746 0 .46.008 1.06.018 1.33l.017.493.22.231c.324.342.266.487-.143.356m6.574-3.955a1 1 0 0 0-.1-.028c-.066-.014-.073-.025-.059-.09.013-.063.004-.08-.057-.113a.4.4 0 0 1-.1-.07c-.08-.094-1.824-.208-1.768-.116.01.017-.055.027-.179.027-.288 0-.458.04-.561.132-.19.17-.765.196-.917.042-.123-.124-.036-.25.202-.294.255-.046.242.028.242-1.434 0-1.41.015-1.32-.22-1.35-.244-.03-.336-.115-.256-.24.064-.099.214-.125.667-.114l.405.009.138.15c.102.114.161.156.23.167.669.105 1.9.06 1.948-.07.039-.103.092-.128.336-.157.734-.086 1.128.104.709.342-.145.083-.14.03-.158 1.43-.02 1.399-.02 1.383.139 1.416.202.042.25.206.086.303-.085.05-.636.094-.727.058M4.767 16.615c-.126-.36-.134-.415-.13-.902.003-.496.016-.687.141-2.193.193-2.31.238-2.808.274-3.01.02-.117.045-.28.053-.36.008-.081.068-.61.133-1.177.065-.566.154-1.409.198-1.872l.131-1.364c.068-.693.122-1.388.172-2.233.091-1.527.206-2.814.265-2.985.02-.057.044-.176.054-.264l.018-.161h.973c.755 0 .976.007.985.033.014.041.112 1.713.135 2.324.017.423.015.452-.039.556-.05.096-.057.155-.057.453v.343l.11.099L8.29 4l-.019.874c-.018.855-.017.878.038 1.002.226.511.05 2.304-.181 1.844C7.932 7.33 7.846 6.406 7.783 4q-.048-1.826-.106-2.14a6 6 0 0 1-.048-.476c-.035-.535-.13-.527-.162.014-.018.303-.03.37-.104.54-.09.208-.133.412-.134.644 0 .08-.024.25-.054.374-.03.125-.084.396-.12.601s-.087.464-.115.575c-.027.111-.08.376-.116.59-.08.466-.178.854-.279 1.11-.093.235-.122.381-.174.864-.046.436-.06.482-.186.638-.168.208-.202.36-.13.57.054.154.05.22-.026.462a3 3 0 0 0-.092.447 2.3 2.3 0 0 1-.094.427c-.12.339-.22 1.144-.147 1.19.065.04.614.048 1.043.015.418-.032.476-.03.717.014.682.128 1.066.05 1.066-.217 0-.069.086-.263.128-.29.013-.008.032-.056.04-.106a.31.31 0 0 1 .229-.257c.08-.022.104-.042.104-.088.003-.324.053-.534.197-.832.09-.185.159-.369.176-.47a.5.5 0 0 1 .105-.255.7.7 0 0 0 .115-.198c.021-.062.076-.165.123-.23.06-.086.105-.206.159-.42.06-.244.121-.396.322-.796.263-.527.437-.916.569-1.28a1 1 0 0 1 .202-.36c.159-.18.263-.395.33-.681.05-.223.115-.363.237-.517a.8.8 0 0 0 .092-.255c.056-.279.24-.637.415-.804l.144-.138.02-.21c.016-.178.038-.246.15-.462.072-.14.171-.37.22-.512s.154-.394.235-.56c.08-.165.145-.316.145-.336 0-.087 1.123-.147 1.175-.062.038.063-.026.171-.212.36-.212.215-.214.22-.235.52a.85.85 0 0 1-.117.401 3 3 0 0 0-.135.303.8.8 0 0 1-.135.223.6.6 0 0 0-.103.15c0 .017-.053.146-.118.286-.064.141-.195.512-.29.825a11 11 0 0 1-.237.714c-.136.312-.181.687-.085.705.151.03.22-.05.294-.343.024-.094.085-.25.134-.344.05-.095.09-.187.09-.204 0-.146.49-.47.747-.495.294-.03.297-.004.036.265-.433.445-.423.35-.466 4.121-.016 1.346-.033 2.46-.038 2.476-.015.047-.379.015-1.077-.094a2 2 0 0 0-.242-.028H11.9l.014-1.264c.014-1.175-.012-2.24-.057-2.354-.121-.307-.574.507-.672 1.21-.029.205-.039.231-.16.413-.043.065-.16.304-.26.532-.219.498-.336.692-.446.738-.094.04-.137.14-.137.325 0 .149-.02.162-.199.13-.901-.157-1.01-.15-.93.05l.054.14c.015.036.037.087.05.113a.2.2 0 0 1 .023.087c0 .08.127.243.395.508.361.358.994 1.097 1.498 1.749.22.284.219.28.058.324a.5.5 0 0 0-.147.059c-.008.011-.037.021-.065.021a.3.3 0 0 0-.097.024 4 4 0 0 1-.363.15c-.378.143-1.53.692-1.872.892-.067.039-.214.128-.576.346-.031.02-.11.07-.176.114l-.193.126c-.415.26-1.13.83-1.601 1.276a4 4 0 0 1-.369.322c-.086.056-.685.667-.685.699a.4.4 0 0 1-.136.115.7.7 0 0 1-.085-.193m15.622-3.982c-.693-.054-1.386-.891-1.05-1.268.055-.062.042-.2-.042-.436-.058-.167-.055-.183.089-.42l.178-.292c.041-.068.07-.083.18-.094.122-.012.133-.02.145-.094.015-.085.025-.089.143-.054.049.014.125.01.211-.013.343-.09 1.102.111 1.178.312.014.04.06.11.102.16a.6.6 0 0 1 .093.14c.009.029.045.071.08.095.115.077.148.379.094.862-.036.315-.102.434-.41.746-.364.367-.45.399-.99.356m.557-.706c.331-.232.494-.778.308-1.029l-.151-.209c-.12-.17-.654-.256-.9-.146-.348.157-.532.555-.415.902.064.19.152.092.154-.172.003-.406.116-.56.504-.682.34-.108.71.27.677.69-.011.138-.146.505-.151.41 0-.012-.043.015-.095.06-.103.093-.379.118-.601.055-.119-.033-.138-.023-.098.053.027.05.175.109.37.146.128.024.302-.01.398-.078m1.874.396c-.048-.05-.1-.165-.159-.355-.284-.918-.614-1.681-.828-1.915-.178-.195-.189-.237-.055-.216.112.019.26.126.311.227.02.04.075.109.121.153.159.151.774 1.582.844 1.963.04.216-.087.293-.234.143m-4.276-1.76c0-.127.35-.6.443-.6.054 0 .036.062-.1.357l-.133.284h-.105c-.077 0-.105-.01-.105-.04m-3.481-.256c-.428-.041-.812-.08-.963-.098l-.158-.019.007-.615c.016-1.42.127-5.034.16-5.255.023-.15.032-.155.56-.295a5 5 0 0 0 .548-.174c.138-.064.341-.088.437-.05.07.027.047.115-.115.428l-.157.303-.015.943c-.008.52-.022 1.819-.03 2.888-.012 1.409-.025 1.947-.047 1.953a1.3 1.3 0 0 1-.227-.009m-8.011-.025c-.17-.036-.207-.125-.115-.276.028-.046.082-.183.121-.306.042-.132.083-.218.101-.211.063.02.215.71.168.758-.031.032-.195.052-.275.035m16.106-.998c-.02-.02-1.515-.061-4.126-.111-2.422-.047-2.847-.066-2.911-.132-.096-.097-.042-4.188.058-4.4.044-.094.385-.1 1.548-.029.486.03 1.423.085 2.083.122s1.604.092 2.097.122 1.205.062 1.582.07c.992.02.981.014.969.53-.004.162-.01 1.046-.013 1.966-.006 1.774-.005 1.752-.132 1.824-.06.034-1.124.069-1.155.038M9.978 4.542c-.082-.184-.01-3.756.088-4.361l.014-.087h.89c1.025 0 1.045.003.903.167a.46.46 0 0 0-.11.266c-.044.289-.156.666-.275.93-.063.14-.123.29-.133.335a1 1 0 0 1-.078.201 1.5 1.5 0 0 0-.089.231 1 1 0 0 1-.19.305l-.161.195.018.16c.017.152.012.174-.088.377a2 2 0 0 0-.12.284.7.7 0 0 1-.11.193.67.67 0 0 0-.132.307c-.093.46-.323.73-.427.497" style="fill:#34470b" transform="translate(.617 .123)"/><path d="M2.596 26.551c.031-.115.045-.208.095-.636.029-.25.077-.533.106-.628.029-.096.06-.246.07-.334.027-.242.041-.262.252-.374.107-.056.245-.136.307-.178a1 1 0 0 1 .13-.076c.009 0 .1-.064.203-.142s.229-.168.28-.2l.095-.058.057.06c.03.032.127.143.212.246.31.373.745.75.844.73q.043-.008-.168-.209a8.6 8.6 0 0 1-.86-.929c-.066-.081-.068-.081-.294.094-.361.278-1.013.657-1.324.77a1.4 1.4 0 0 0-.159.065 1 1 0 0 1-.145.052l-.184.057c-.165.054-.461.09-.75.09l-.315.002-.087-.247-.087-.248.194-.595c.537-1.646 1.338-3.368 2.193-4.714.046-.073.107-.17.134-.217.027-.045.109-.165.182-.265l.374-.519c.611-.848 1.649-1.995 2.343-2.588 1.176-1.006 2.434-1.803 3.692-2.34.352-.15.819-.335 1.1-.435.205-.073.284-.114.284-.145-.001-.061-.328-.513-.696-.96-.213-.26-.368-.439-1.113-1.274-.132-.148-.246-.294-.255-.323a4 4 0 0 0-.068-.2c-.056-.157-.052-.198.018-.177.102.03 1.875.279 2.681.376l.765.094c.116.015.43.05.7.08.442.047.787.083 1.99.202.438.044 1.182.106 2.69.227.55.044 1.01.09 1.02.1.125.129.188.556.093.625a.7.7 0 0 0-.085.12l-.118.198-.237.4c-.03.052-.089.149-.131.215-.073.114-.257.426-.344.583-.022.04-.082.139-.132.22-.131.213-.128.208-.416.708-1.123 1.947-1.922 3.608-2.514 5.222-.147.4-.17.444-.197.365a75 75 0 0 0-.626-1.549 20 20 0 0 0-1.045-2.052c-.077-.13-.114-.128-.44.01-2.035.856-4.015 2.54-5.078 4.316-.962 1.608-1.59 4.095-1.306 5.182.04.154-.611-.02-.962-.256-.085-.058-.234-.103-.234-.072 0 .158.71.484 1.14.525.218.021.229.005.18-.268-.076-.429-.024-1.443.107-2.056.102-.479.314-1.189.434-1.455a1 1 0 0 0 .065-.178c0-.019.01-.046.022-.06s.066-.133.12-.266c.053-.132.121-.27.15-.307l.052-.067-.014.067a8 8 0 0 0-.052.39 2 2 0 0 1-.115.525c-.099.25-.12.398-.203 1.405a70 70 0 0 1-.13 1.404c-.036.327-.09.854-.12 1.17s-.061.614-.069.662l-.013.087h-2.15c-2.035 0-2.15-.003-2.138-.047m3.459-1.984a6 6 0 0 0 .025-.555c.07-3.729 2.818-7.395 6.74-8.992.385-.157.335-.177.576.233.446.759.766 1.406 1.156 2.345.323.777.293.764.509.224.696-1.748 1.618-3.533 3.096-5.997.452-.754.49-.828.447-.855a23 23 0 0 0-1.064-.098c-2.704-.215-4.912-.45-7.014-.747-.449-.063-.547-.07-.577-.04-.043.04-.063.012.378.516.586.668 1.608 2.087 1.56 2.166-.008.013-.057.032-.108.042-.602.115-2.281.845-3.23 1.406-3.234 1.909-5.737 5.214-7.214 9.527-.141.413-.14.449.01.449.59 0 1.643-.492 2.423-1.132.269-.22.217-.231.472.109.556.745 1.684 1.614 1.815 1.399m7.61-1.525c-.212-.066-.665-.349-.559-.349.08 0 .088-.11.016-.209-.135-.186-.185-.204-.226-.084-.027.079-.03.08-.079.036s-.048-.048.022-.122c.079-.084.08-.073-.04-.463-.048-.156-.075-3.78-.038-5.108l.02-.722.118-.06c.065-.032.123-.053.13-.047.006.007.02 1.37.032 3.028.023 3.333.016 3.203.193 3.47.049.074.102.162.12.195.016.034.11.115.207.18.271.181.282.192.243.24-.037.044-.06.047-.16.015m7.86-4.804c-.194-.047-.913-.091-1.51-.092-.911 0-1.15-.039-1.208-.193-.085-.226-.058-2.336.032-2.525.07-.145 3.393-.105 3.538.042.036.037.062 2.12.031 2.457q-.046.52-.883.311M4.767 16.615c-.126-.36-.134-.415-.13-.902.003-.496.016-.687.141-2.193.193-2.31.238-2.808.274-3.01.02-.117.045-.28.053-.36.008-.081.068-.61.133-1.177.065-.566.154-1.409.198-1.872l.131-1.364c.068-.693.122-1.388.172-2.233.091-1.527.206-2.814.265-2.985.02-.057.044-.176.054-.264l.018-.161h.973c.755 0 .976.007.985.033.014.041.112 1.713.135 2.324.017.423.015.452-.039.556-.05.096-.057.155-.057.453v.343l.11.099L8.29 4l-.019.874c-.018.855-.017.878.038 1.002.226.511.05 2.304-.181 1.844C7.932 7.33 7.846 6.406 7.783 4q-.048-1.826-.106-2.14a6 6 0 0 1-.048-.476c-.035-.535-.13-.527-.162.014-.018.303-.03.37-.104.54-.09.208-.133.412-.134.644 0 .08-.024.25-.054.374-.03.125-.084.396-.12.601s-.087.464-.115.575c-.027.111-.08.376-.116.59-.08.466-.178.854-.279 1.11-.093.235-.122.381-.174.864-.046.436-.06.482-.186.638-.168.208-.202.36-.13.57.054.154.05.22-.026.462a3 3 0 0 0-.092.447 2.3 2.3 0 0 1-.094.427c-.12.339-.22 1.144-.147 1.19.065.04.614.048 1.043.015.418-.032.476-.03.717.014.682.128 1.066.05 1.066-.217 0-.069.086-.263.128-.29.013-.008.032-.056.04-.106a.31.31 0 0 1 .229-.257c.08-.022.104-.042.104-.088.003-.324.053-.534.197-.832.09-.185.159-.369.176-.47a.5.5 0 0 1 .105-.255.7.7 0 0 0 .115-.198c.021-.062.076-.165.123-.23.06-.086.105-.206.159-.42.06-.244.121-.396.322-.796.263-.527.437-.916.569-1.28a1 1 0 0 1 .202-.36c.159-.18.263-.395.33-.681.05-.223.115-.363.237-.517a.8.8 0 0 0 .092-.255c.056-.279.24-.637.415-.804l.144-.138.02-.21c.016-.178.038-.246.15-.462.072-.14.171-.37.22-.512s.154-.394.235-.56c.08-.165.145-.316.145-.336 0-.087 1.123-.147 1.175-.062.038.063-.026.171-.212.36-.212.215-.214.22-.235.52a.85.85 0 0 1-.117.401 3 3 0 0 0-.135.303.8.8 0 0 1-.135.223.6.6 0 0 0-.103.15c0 .017-.053.146-.118.286-.064.141-.195.512-.29.825-.096.313-.202.634-.237.713-.065.15-.147.475-.147.586 0 .036-.015.073-.033.082-.16.08-.317.26-.305.35a.3.3 0 0 1-.028.107c-.05.124-.105.412-.148.79-.046.4-.07.47-.172.49-.191.039-.491.743-.566 1.33a.8.8 0 0 1-.123.291 6 6 0 0 0-.286.576c-.217.493-.334.687-.444.733-.094.04-.137.14-.137.325 0 .149-.02.162-.199.13-.901-.157-1.01-.15-.93.05l.054.14c.015.036.037.087.05.113a.2.2 0 0 1 .023.087c0 .08.127.243.395.508.361.358.994 1.097 1.498 1.749.22.284.219.28.058.324a.5.5 0 0 0-.147.059c-.008.011-.037.021-.065.021a.3.3 0 0 0-.097.024 4 4 0 0 1-.363.15c-.378.143-1.53.692-1.872.892-.067.039-.214.128-.576.346-.031.02-.11.07-.176.114l-.193.126c-.415.26-1.13.83-1.601 1.276a4 4 0 0 1-.369.322c-.086.056-.685.667-.685.699a.4.4 0 0 1-.136.115.7.7 0 0 1-.085-.193m15.491-4.81c-.22-.06-.335-.452-.233-.79.07-.231.482-.45.664-.353.756.406.394 1.366-.43 1.142M7.052 10.281c-.17-.036-.207-.125-.115-.276.028-.046.082-.183.121-.306.042-.132.083-.218.101-.211.063.02.215.71.168.758-.031.032-.195.052-.275.035m5.885-.18c-.097-.066-.103-.223-.104-2.613-.002-1.716-.01-2.359-.034-2.447l-.08-.298c-.04-.147-.042-.188-.015-.242.018-.035.053-.141.077-.236a2 2 0 0 1 .134-.344c.05-.095.09-.187.09-.204 0-.112.476-.463.662-.488l.11-.015-.049.078a13 13 0 0 1-.272.385c-.122.169-.232.337-.244.374-.021.068-.103 4.464-.102 5.49 0 .46-.005.554-.036.554a.3.3 0 0 0-.073.013.08.08 0 0 1-.064-.006m9.181-1.156c-.247-.01-1.267-.034-2.268-.05-3.011-.053-3.274-.072-3.356-.248-.116-.247-.045-3.568.078-3.693.06-.06 1.268-.058 2.09.005.593.045 1.19.08 1.887.108 2.763.115 3.446.182 3.533.347.082.155.171 3.173.1 3.347-.084.203-.608.25-2.064.184M9.978 4.542c-.082-.184-.01-3.756.088-4.361l.014-.087h.89c1.025 0 1.045.003.903.167a.46.46 0 0 0-.11.266c-.044.289-.156.666-.275.93-.063.14-.123.29-.133.335a1 1 0 0 1-.078.201 1.5 1.5 0 0 0-.089.231 1 1 0 0 1-.19.305l-.161.195.018.16c.017.152.012.174-.088.377a2 2 0 0 0-.12.284.7.7 0 0 1-.11.193.67.67 0 0 0-.132.307c-.093.46-.323.73-.427.497" style="fill:#342c16" transform="translate(.617 .123)"/><path d="M6.148 25.325c-.573-.171-1.167-.619-1.732-1.305-.263-.318-.249-.312-.427-.18-.798.597-1.577.969-2.237 1.07-.177.028-.694.042-.694.02 0-.006-.037-.114-.081-.241l-.081-.232.224-.677C1.708 22 2.6 20.138 3.456 18.895l.173-.254c1.964-2.88 4.356-4.724 7.662-5.906.212-.076-.206-.683-1.302-1.89-.601-.663-.618-.684-.686-.854-.114-.284-.155-.271.531-.17a77 77 0 0 0 2.037.275l.844.106c.273.037 1.592.174 2.572.268.794.076 2.636.23 3.218.27.629.043.583.023.673.29.084.248.088.222-.074.475a88 88 0 0 0-1.943 3.312l-.252.468a39 39 0 0 0-1.21 2.504 41 41 0 0 0-.598 1.541c-.031.129-.054.105-.165-.175-.781-1.972-1.512-3.442-1.71-3.442-.234 0-1.583.705-2.29 1.198-.891.62-2.03 1.68-2.52 2.346-1.387 1.886-2.227 4.53-1.917 6.037.026.126-.018.13-.35.03m-.066-.733c.009-.014.02-.27.025-.568.064-3.78 2.92-7.53 6.892-9.048l.165-.063.07.112c.465.746.96 1.75 1.423 2.89.19.47.213.463.444-.117.715-1.792 1.606-3.515 3.119-6.026.568-.944.657-.822-.678-.927-2.568-.2-5.204-.483-7.129-.762-.615-.09-.64-.066-.319.287.615.675 1.802 2.278 1.755 2.37a3 3 0 0 1-.356.128c-4.608 1.474-8.1 5.104-10.023 10.42-.336.928-.336.93-.135.93.604 0 1.735-.528 2.459-1.147.232-.199.204-.2.36.024.541.778 1.78 1.74 1.928 1.497m7.034-2.161c-.315-.43-.35-.99-.303-4.725l.021-1.684.071-.04c.115-.066.113-.115.131 2.896.02 3.394.013 3.255.204 3.56.173.277.08.272-.124-.007m8.194-4.297a30 30 0 0 0-1.198-.043c-.966-.024-1.193-.037-1.225-.068-.06-.06-.06-2.556.001-2.617.042-.043 3.046.012 3.349.06l.118.02.01.133c.025.385-.03 2.45-.067 2.489-.037.037-.953.061-.988.026M4.763 15.956l-.079-.017.006-.508c.003-.279.022-.718.044-.975l.176-2.126c.075-.912.148-1.687.16-1.721l.024-.063 2.221.018 2.222.018.213.219c.195.2.938 1.062 1.093 1.269l.186.24c.232.296.245.327.145.327-.035 0-.072.012-.08.027-.01.015-.035.027-.057.027-.048 0-.704.245-.9.336a7.185 7.185 0 0 0-.466.212c-.17.08-.314.147-.322.147s-.206.103-.44.23c-.358.193-.658.372-1.292.773a16 16 0 0 0-.739.535l-.334.275c-.138.113-.34.29-.449.394-.108.103-.248.233-.31.288l-.112.1-.415-.004a5 5 0 0 1-.495-.02m15.566-4.212c-.342-.129-.396-.635-.098-.908.223-.204.367-.21.577-.028.48.417.103 1.154-.48.936m-7.394-1.68c-.067-.105-.046-5.483.023-5.788.07-.307.161-.377.192-.146.024.174-.033 3.54-.073 4.322-.017.338-.031.843-.031 1.122 0 .515-.025.624-.11.49M23.16 8.911c-.014-.013-1.405-.06-2.966-.098-3.601-.09-3.653-.095-3.653-.31 0-.19.071-.219.267-.105.248.143.445.058.445-.192s-.234-.348-.44-.185c-.258.203-.25.245-.249-1.343.002-1.172.01-1.451.044-1.626.024-.123.659-.1 5.682.204 1.673.102 1.68.102 1.725.148.091.092.1 3.363.009 3.455-.045.045-.822.092-.864.052m.565-.208c.163-.13.19-.31.066-.428-.256-.242-.517.12-.282.392.092.107.12.112.216.036m-2.267-.12c.131-.133 0-.493-.18-.493-.233 0-.353.39-.157.505.075.044.289.037.337-.012m.778-.027c.213-.182-.043-.519-.292-.383-.132.071-.15.352-.027.425.085.05.233.031.319-.042m.829.014c.169-.135 0-.389-.255-.382-.132.004-.177.058-.177.215 0 .213.252.31.432.167m-5.13.003c.332-.18.176-.724-.165-.579-.23.097-.253.258-.065.46.143.152.157.16.23.12m.93-.078c.193-.196.075-.458-.206-.458-.166 0-.193.03-.193.218 0 .308.208.433.399.24m.846 0c.2-.182-.013-.55-.259-.445-.184.078-.222.286-.079.43.115.118.22.122.338.015m.866-.311c.215-.113.198-.478-.028-.594-.293-.15-.59.244-.377.501.112.136.259.17.405.093m3.165-.321c.2-.105.168-.46-.044-.502-.217-.042-.372.196-.266.408.061.122.184.16.31.094m-2.307-.069c.079-.088.088-.402.014-.476-.106-.107-.367-.036-.424.115-.086.23.257.532.41.361m.783-.037c.216-.213.097-.51-.183-.456-.231.044-.299.292-.125.459.12.114.19.113.308-.003m.78.025c.16-.136.122-.357-.072-.416-.208-.063-.38.076-.324.263.065.222.238.288.397.153m-3.35-.081c.237-.169.156-.493-.124-.493-.217 0-.29.14-.19.365.075.166.192.214.313.128m-1.627-.116c.194-.197.11-.457-.15-.457-.254 0-.343.342-.134.514.09.074.171.058.284-.057m.857.013c.188-.191.09-.444-.175-.444-.232 0-.324.159-.217.374.088.18.255.209.392.07m-1.635-.084c.088-.136-.064-.413-.227-.413-.213 0-.35.15-.3.328.047.165.435.228.527.085m6.526-.513c.224-.204.045-.565-.224-.451-.186.079-.203.336-.032.477.081.066.163.058.256-.026m-.714-.086c.13-.246-.14-.547-.323-.362-.093.095-.104.383-.014.388.004 0 .055.017.113.037.115.041.178.023.224-.063m-1.616-.038c.195-.182.095-.418-.177-.418-.268 0-.327.298-.09.456.107.072.155.066.267-.038m.797.021c.137-.117.087-.352-.09-.427-.25-.106-.428.22-.236.429.083.091.217.09.326-.002m-2.5-.099c.112-.097.136-.166.089-.26-.129-.25-.541-.218-.541.044 0 .217.289.355.451.216m-.828-.06c.198-.23-.16-.586-.372-.37-.07.071-.095.233-.053.345.049.128.322.145.425.025m1.722 0c.143-.139.12-.314-.062-.49-.246-.238-.596.227-.366.487.106.12.306.121.428.002m-2.567.008c.17-.19.035-.475-.225-.475-.185 0-.266.174-.179.386.066.16.295.21.404.089m-.897-.037c.145-.092.132-.39-.021-.484-.14-.085-.472.072-.472.222 0 .222.304.383.493.262m6.659-.536c.174-.16-.118-.58-.313-.45-.13.086-.183.34-.09.425.109.1.308.112.403.025m-.8-.05c.16-.136.154-.282-.014-.398-.22-.152-.351-.083-.351.184 0 .257.186.367.364.214m-.847.012c.217-.076.148-.507-.08-.506-.354.002-.356.395-.003.534.002 0 .04-.012.083-.028m-.77-.09c.09-.092.094-.326.005-.408-.122-.114-.22-.09-.368.085-.172.204.176.513.363.323m-1.735-.042c.236-.146.128-.508-.152-.508-.145 0-.185.052-.185.245 0 .285.134.39.337.263m-.807-.055c.145-.079.147-.338.003-.452-.091-.074-.278-.074-.35 0-.186.188.113.578.347.452m-.822-.077c.189-.135.074-.483-.16-.483-.092 0-.315.195-.315.275 0 .19.311.326.475.208m-.911-.012c.15-.064.19-.223.096-.38-.104-.174-.296-.176-.438-.005-.166.2.093.49.342.385" style="fill:#231a10" transform="translate(.617 .123)"/><path d="M20.575 18.062c-.983-.032-1.623-.065-1.658-.087-.022-.014-.03-.351-.03-1.233V15.53l.059-.042c.044-.032.13-.042.362-.042.494-.001 2.828.056 2.926.07l.09.015-.017 1.257c-.01.691-.024 1.268-.032 1.282-.017.028-.727.025-1.7-.007M4.873 15.847c-.182-.036-.19-.403-.046-2.047.044-.5.116-1.384.16-1.965.106-1.398.059-1.254.402-1.227l.627.049c.553.043.552.042.562.746l.005.425-.125.136c-.15.162-.127.09-.15.467-.03.5-.131.511-.157.016-.018-.33-.064-.423-.15-.305-.067.09-.043 1.511.026 1.59.088.098-.183.303-.287.216-.13-.109-.142-.036-.151.871l-.008.845-.083.075c-.126.114-.375.157-.625.108m15.517-4.132c-.398-.13-.416-.664-.031-.923.149-.1.2-.1.352-.003.518.332.248 1.11-.321.926m2.503-2.86c-.011-.012-.771-.036-3.022-.096-1.22-.033-1.173-.022-.985-.23.175-.192.153-.392-.054-.499-.33-.17-.568.166-.34.484.124.174.102.19-.242.191-.325 0-.338-.015-.18-.217.275-.353-.095-.761-.42-.463-.18.165-.155.332.081.533.156.133.122.142-.457.117-.556-.024-.642-.041-.642-.129q0-.153.216-.073c.178.064.258.058.354-.03.268-.243-.01-.66-.34-.512-.172.077-.21.07-.242-.048q-.114-.417.193-.287c.382.162.638-.113.4-.43-.095-.126-.175-.14-.381-.067-.205.072-.24.049-.24-.162 0-.26.06-.312.227-.197.23.158.46.04.48-.25.022-.304-.165-.412-.47-.27-.232.11-.244.098-.228-.218.016-.333.034-.353.182-.201.27.277.68.032.509-.304-.11-.216-.308-.248-.495-.081a1 1 0 0 1-.136.107c-.027 0-.017-.367.011-.443l.028-.073.506.019c1.023.037 6.132.332 6.568.379.198.021.23.056.23.25 0 .2-.04.22-.2.095-.214-.165-.388-.097-.461.18-.069.257.2.422.49.3.146-.062.186.002.173.275-.004.101-.087.122-.188.047-.257-.192-.561.07-.436.375.084.203.26.238.446.089.133-.108.156-.08.17.204.015.275-.018.31-.167.178-.252-.225-.592.054-.443.364.099.205.244.225.49.068.108-.07.12-.034.14.448.022.555.012.588-.17.588-.17 0-.184-.031-.07-.146.267-.272.044-.716-.264-.526-.192.12-.206.31-.037.496a.5.5 0 0 1 .105.146c0 .03-.66.047-.689.018m-1.403-.237c.108-.109.065-.394-.076-.515-.233-.198-.579.207-.387.454.098.126.364.161.463.061m.676.03c.238-.123.262-.336.054-.502-.177-.141-.432.012-.432.26 0 .209.199.336.378.243m.887-.008c.251-.132.077-.496-.239-.496-.15 0-.21.059-.226.22-.024.256.223.403.465.276m-3.402-.054c.226-.119.244-.382.037-.547-.131-.105-.33-.042-.419.132-.12.237.154.535.382.415m.908-.345c.197-.084.282-.374.16-.541-.188-.255-.437-.25-.611.014-.188.282.136.66.45.527m.857-.381c.184-.131.18-.53-.007-.621-.176-.086-.438.08-.438.277 0 .244.28.46.445.344m.775-.024c.294-.203.218-.575-.117-.575-.34 0-.422.403-.121.589.11.068.12.067.238-.014m.757.028c.196-.103.248-.33.108-.47-.146-.149-.436-.1-.5.082-.083.244.176.501.392.388m-3.236-.169c.274-.265-.012-.678-.348-.501-.176.092-.14.426.058.55.102.064.187.05.29-.049m-1.686-.054c.194-.186.19-.422-.008-.526-.358-.188-.63.36-.286.574.105.066.188.052.294-.048m.835.024c.27-.191.155-.564-.174-.564-.33 0-.391.467-.08.604.092.04.156.03.254-.04m4.18-.662c.217-.22-.017-.667-.277-.53-.146.076-.209.32-.112.437.106.127.308.176.39.093m-1.579-.1c.201-.203.128-.453-.145-.49-.374-.05-.468.383-.122.566.115.06.14.054.267-.075m.704.088c.105-.055.203-.166.203-.232 0-.255-.294-.447-.466-.306-.26.215-.029.69.263.538m-2.445-.133c.191-.12.22-.263.082-.415-.155-.172-.46-.153-.536.032-.112.27.207.538.454.383m-1.696-.028c.151-.078.196-.28.098-.443-.138-.23-.461-.22-.531.018-.081.274.197.548.433.425m.846 0a.27.27 0 0 0 .107-.118c.16-.342-.355-.643-.526-.307-.148.29.121.562.42.425m1.731-.01c.234-.123.198-.49-.063-.653-.112-.07-.178-.05-.346.107-.305.285.037.74.41.546m2.469-.692c.178-.18.143-.348-.097-.472-.223-.115-.368-.029-.368.22 0 .346.243.478.465.252m-.816.023c.195-.138.067-.575-.169-.575-.146 0-.298.133-.298.26 0 .256.282.447.467.315m-.82-.077c.257-.26-.039-.7-.323-.48-.184.143-.214.302-.082.428.18.172.275.184.405.052m-1.688-.08c.238-.242-.03-.657-.344-.535-.111.043-.16.338-.08.492.084.166.282.186.424.043m-.818-.054c.208-.21.043-.55-.267-.55-.294 0-.334.405-.058.585.127.082.22.072.325-.035m-.883-.024c.19-.129.193-.334.009-.498-.14-.124-.252-.1-.43.087-.23.242.14.603.42.411" style="fill:#100e06" transform="translate(.617 .123)"/></svg>