<svg xmlns="http://www.w3.org/2000/svg" viewBox="0 0 1067 1067"><path fill="#b5b5c0" d="m49 1064-1-4v-18l2-11 4-13v-2h-2l-6-1-4-2-2-3-2-4 1-146a91218 91218 0 0 1 0-254v-84l2-3 4-4 2-1 21-1 21-1v-8l1-8 3-4 4-3h60l4 3 3 4 1 8 1 8 19 1h19l1-5 4-43v-2H76l-3-2-4-1-3-4-3-4-1-4-2-4 1-120V203l4-2 5-2v-15l-5-2-4-3v-35l-1-35 28-27 28-28h129v-2l2-13c0-14 2-25 3-29l2-2 1-1 2-1 67-1 66-1 244 1h243l5 1 4 1 1 4v4l-4 21a4052 4052 0 0 1-22 109l-1 5 3 2 2 1 11 2 42 5c49 5 54 6 68 15l14 8 11 5 7 3 5 4 5 5 2 4 3 5 1 7 1 7 2 321 1 321-4 6-9 12-4 5-6 3-13 5-8 2-11 6c-20 10-19 10-129 14-101 3-112 4-123 5l-11 1-1 1a1248 1248 0 0 0-29 140l-1 3H50Z"/><path fill="#fbc411" d="M49 1061v-18l3-14 3-13v-1l-1-1h-7l-4-3-3-3V861l1-147h87l87-1v-22l-1-2H40V521l4-3 3-4h40l40-1 40 1h40v-5a391 391 0 0 1 3-44v-3H77l-4-2-5-2-2-4-2-3-1-4-1-5V205l5-3 4-2 1-5v-4l-1-4v-4l-4-2-4-2-1-2v-67l27-27 28-28h129v-1l2-14 2-20 1-10 2-1 2-1 12-1 13-1h583l10 1 10 1v12l-4 20a4629 4629 0 0 1-21 104l-1 4 1 2c1 5 6 5 60 11 48 6 52 7 66 16l8 5 9 3c11 4 16 7 22 15l6 6 1 4 1 5 1 43 1 43 1 282v282l-4 7-4 6-5 5-5 5-6 3-11 4-5 1-11 6-17 7-5 2-9 1a4190 4190 0 0 1-209 9l-20 1-4 1-4 1-1 2c-2 5-26 132-26 141v1H50Zm129-25c5-3 9-8 11-14l2-5-1-1-1-1H65l-1 1 1 6 1 4 4 5 4 4 4 2 4 2h92zm201-3c4-3 7-8 9-13l2-5-1-1v-1H264v1l-1 1 2 5c2 5 5 10 10 13l3 3 46 1h45l3-1c2 0 5-1 7-3m35-332v-12l-1-2H240l-1 2v21l1 1h174zm-51-199v-9l-3-3-3-3h-61l-3 3-3 3v18h73zm-89-106v-7l-58-1-60 1h-3v7l1 7 1 1h119z"/><path fill="#d49468" d="M49 1061v-18l3-14 3-13v-1l-1-1h-7l-4-3-3-3V861l1-147h87l87-1v-22l-1-2H40V521l4-3 3-4h40l40-1 40 1h40v-5a391 391 0 0 1 3-44v-3H77l-4-2-5-2-2-4-2-3-1-4-1-5V205l5-3 4-2 1-5v-4l-1-4v-4l-4-2-4-2-1-2v-67l27-27 28-28h129v-1l2-14 2-20 1-10 2-1 2-1 12-1 13-1h583l10 1 10 1v12l-4 20a4629 4629 0 0 1-21 104l-1 4 1 2c1 5 6 5 60 11 48 6 52 7 66 16l8 5 9 3c11 4 16 7 22 15l6 6 1 4 1 5 1 43 1 43 1 282v282l-4 7-4 6-5 5-5 5-6 3-11 4-5 1-11 6-17 7-5 2-9 1a4190 4190 0 0 1-209 9l-20 1-4 1-4 1-1 2c-2 5-26 132-26 141v1H50Zm129-25c5-3 9-8 11-14l2-5-1-1-1-1H65l-1 1 1 6 1 4 4 5 4 4 4 2 4 2h92zm201-3c4-3 7-8 9-13l2-5-1-1v-1H264v1l-1 1 2 5c2 5 5 10 10 13l3 3 46 1h45l3-1c2 0 5-1 7-3m35-332v-12l-1-2H240l-1 2v21l1 1h174zm-51-199v-9l-3-3-3-3h-61l-3 3-3 3v18h73zm-89-106v-7l-58-1-60 1h-3v7l1 7 1 1h119zM106 154l1-1v-50l-1-2-1-1H84l-1 1-1 2v50l1 1 1 2h21zm32-54V73h-12l-12-1v55h24zm31 0V72l-12 1h-12v52l1 2h23zm32 0V73h-12l-12-1v55h12l12-1zm31 0V73h-24v54h24zm32 25v-23l-1-26v-4l-12 1h-12v52l1 2h23zm31-25V73h-12l-12-1v55h12l12-1zm31 0V72l-12 1h-12v52l1 2h23z"/><path fill="#947451" d="m49 1058-1-11 1-5 4-15 2-11v-1l-1-1h-7l-4-3-3-3V861l1-147h87l87-1v-22l-1-2H40v-25l2-1 2-1h170V520l-4-4-4-4 2-22 2-25v-3H77l-4-2-5-2-2-4-2-3-1-4-1-5V205l5-3 4-2 1-5v-4l-1-4v-4l-4-2-4-2-1-2v-67l27-27 28-28h129v-2l3-20 1-18 1-3 2-4h2l11-1 9-1h581l14 1 13 1v12l-5 25-12 57-9 46v3l3 2 2 2 11 1 40 5c36 4 49 6 57 8l5 2 8 6 14 7 11 5 7 3 5 4 8 9 2 5 1 11 1 12 1 315 1 315-3 6-3 6-4 5-10 9-5 3-9 2-9 3-9 5-15 7-6 2-10 1-125 5c-64 2-92 4-100 5l-9 1-1 1c-3 2-22 95-27 134l-2 10H50Zm129-22c5-3 9-8 11-14l2-5-1-1-1-1H65l-1 1 1 6 1 4 4 5 4 4 4 2 4 2h92zm201-3c4-3 7-8 9-13l2-5-1-1v-1H264v1l-1 1 2 5c2 5 5 10 10 13l3 3 46 1h45l3-1c2 0 5-1 7-3M140 888l23-46-1-1v-2h-22v-35l-1-35-48 94v1h23l1 35v35h2zm199-2 23-46v-1l-1-2h-22v-70h-1l-47 94v1h23v70h2zm75-185v-12l-1-2H240l-1 2v21l1 1h174zm-1-112 1-71-3-3-3-3h-42l-1-1-2-2v-16l-2-3-3-3h-62l-3 3-3 3v16l-1 2-2 1h-42l-2 3-3 3v142h173zm-91 24-2-1-1-9v-8l-8-1h-8l-1-1-2-1v-12h2l9-1h7l1-2 1-9v-7h1l6-1 5 1h2v16l1 2h7l9 1h2v12l-2 1-1 1h-8l-8 1v8l-1 9-2 1zm-48-217v-7l-58-1-60 1h-3v7l1 7 1 1h119zM106 154l1-1v-50l-1-2-1-1H84l-1 1-1 2v50l1 1 1 2h21zm32-54V73h-12l-12-1v55h24zm31 0V72l-12 1h-12v52l1 2h23zm32 0V73h-12l-12-1v55h12l12-1zm31 0V73h-24v54h24zm32 25v-23l-1-26v-4l-12 1h-12v52l1 2h23zm31-25V73h-12l-12-1v55h12l12-1zm31 0V72l-12 1h-12v52l1 2h23zM122 615l-2-1v-17l-8-1h-8l-2-1-1-1v-11l2-1 9-1h7l1-1v-17h2l5-1 5 1h2v8l1 9v1h8l9 1 1 1v11l-1 1-2 1h-7l-8 1-1 8v9l-2 1z"/><path fill="#555253" d="m51 1067-1-15 1-15 2-10 3-11v-2h-7l-3-2-4-2-1-3-1-2V860l1-145h174l1-3-1-20v-3H43l-2-1-1-1v-11l1-11 87-1h87V520l-4-4-4-5 2-24 2-24-1-1v-1h-68l-69-1-3-2-5-5-2-3V204l2-1 3-1 2-2 2-3v-11l-2-3-2-3h-3l-2-1v-69l27-27 27-27h129l1-2 1-1 1-11 2-21 1-10 2-1 2-2 85-1 85-1 212 1 228 1 17 1-1 6-18 92c-8 39-9 42-7 45 2 4 7 5 60 11l43 5 8 2 5 2 10 5c4 4 12 8 19 10l6 2 6 4 6 4 3 4 5 7 1 2 1 12 1 11 1 317v316l-4 7-5 8-5 3c-6 5-10 7-18 9l-7 2-12 6-13 7-6 1-6 2-21 1-161 6c-26 1-51 2-55 4l-4 1-2 2c-2 4-16 77-23 120l-3 19v2l1 2H51Zm81-27h42l5-4 8-7 3-5v-5l1-5H64l-1 2-1 1 2 6 2 5 5 6 6 5 3 1 3 1 3-1zm246-5 4-2 3-4 4-9 2-6v-1l-1-1H263v5l1 5 3 4 7 8 4 3 45 1c50 0 49 0 55-3M141 889l24-48-1-1-1-2h-23v-72h-2l-24 48-24 49v1l12 1 11 1 1 36v36h3zm199-2 24-48-1-1-1-2h-22v-36l-1-36h-2l-24 48-24 49v1l12 1h12v72h3zm75-176 1-12v-11l-1-1H239v25h175zm0-50v-73l-1-72-3-2-3-3h-22l-21-1v-8l-1-9-3-3-3-4h-62l-4 4-3 3v9l-1 8-21 1h-21l-4 3-3 4v144h175zM275 403l1-2v-5l-1-6v-2H153v8l1 9h120zM107 155l1-2v-50l-1-2-1-2H83l-1 2-1 2v50l1 2 1 2h23zm32-55V72h-26v55l1 1h12l13-1zm31 0V72h-12l-13-1v2l-1 1v53l1 1h12l13-1zm32 2V74l-1-3-12 1h-13v56h13l13-1zm31-2V72h-26v55l1 1h12l13-1zm32 26-1-51v-3h-13l-12-1-1 2v53l1 2h25zm31-26V72h-26v55l1 1h12l13-1zm31 0V72h-26v56h13l13-1z"/><path fill="#3d3c48" d="M50 1067v-1h1v-26l3-11 3-12h2l2-1 2 6 2 7 6 5 5 6h4l49 1 46-1 5-3 4-3 3-4 4-9 1-5h18l2-3 3-3V520l-3-5-4-5 2-23c1-13 2-24 1-25v-1H78l-5-3-5-2-2-4-2-3V205l3-2 4-2 1-2 1-3v-4c0-7-3-13-7-13h-2v-69l27-27 27-27h129l1-1 2-20 2-22 1-3 4-1 5-1h615l3 1h3l-1 7a1566 1566 0 0 1-25 127l-1 7 1 2 1 3 4 1a1296 1296 0 0 0 102 13l7 2 7 4c8 5 20 11 27 13l5 2 6 4 6 5 3 4 3 5 1 4 1 5 1 55 1 56v538l-4 7-5 8-5 3c-6 5-9 7-18 9l-7 2-12 6-13 7-7 1c-11 3-30 4-187 9-28 1-51 2-56 4l-4 1-1 1c-2 5-13 59-22 111l-4 19v14H51Zm328-31 5-3 3-4 4-9 2-5h8l9-1 3-3 3-3V517l-3-3-4-4h-42v-9l-1-8-4-4-4-4h-61l-4 4-4 4v8l-1 9h-42l-3 4-4 3v246l1 245 2 3 3 3h17l2 5 4 9 3 4 4 3c5 4 3 4 53 4h47zm-132-27-3-2-1-3-1-3V714h171v287l-1 3-1 3-3 2-4 2H250zm95-121 25-50-1-1-2-2h-22v-36l-1-37h-1l-2-1-25 50-24 49v3l12 1h12v72l1 1 2 2 1-1zM241 674v-10h171v10l1 11H241zm34-269h1v-9l-1-8H153l-1 8v9h1l2 1h118zM107 155l1-2v-50l-1-2-1-2H83l-1 2-1 2v50l1 2 1 2h23zm32-55V72h-26v55l1 1h12l13-1zm31 0V72h-12l-13-1v2l-1 1v53l1 1h12l13-1zm32 2V74l-1-3-12 1h-13v56h13l13-1zm31-2V72h-26v55l1 1h12l13-1zm32 26-1-51v-3h-13l-12-1-1 2v53l1 2h25zm31-26V72h-26v55l1 1h12l13-1zm31 0V72h-26v56h13l13-1zM47 1011l-4-2-1-3-1-3 1-143V716h170l1 144v143l-1 3-1 3-4 2-3 2H50zm95-121 24-49-1-2-1-2h-22l-1-36v-37h-2l-2-1-24 50-25 49v2l1 2h11l12 1v35l1 36 1 1 1 2 1-1zM41 676l1-10h170l1 10v11H41Z"/><path fill="#486211" d="M50 1067v-1h1v-26l3-11 3-12h2l2-1 2 6 2 7 6 5 5 6h4l47 1 43 1 4-1 4-1 5-5 5-6 2-6 2-6 9-1h9l3-4 3-3V764l-1-245-3-4-4-5 2-23 2-24 1-2-2-1H77l-3-2c-4-2-8-5-9-10l-1-4V205h1l5-3 3-3v-15l-3-3-5-3h-1v-67l27-27 27-26h128l2-1 1-1v-1c-1-1 2-38 3-42l1-3 4-1 5-1h615l3 1h3l-1 7a1566 1566 0 0 1-25 127l-1 7 1 2 1 3 4 1a1296 1296 0 0 0 102 13l7 2 7 4c8 5 20 11 27 13l5 2 6 4 6 5 3 4 3 5 1 4 1 5 1 55 1 56v538l-4 7-5 8-5 3c-6 5-9 7-18 9l-7 2-12 6-13 7-7 1c-11 3-30 4-187 9-28 1-51 2-56 4l-4 1-1 1c-2 5-13 59-22 111l-4 19v14H51Zm329-31 6-6 3-4 2-6 2-5h8l9-1 3-3 3-3V517l-3-3-4-4h-42v-9l-1-8-4-4-4-4h-61l-4 4-4 4v8l-1 9h-42l-3 4-4 3v245l-1 244 3 4 4 4h9l8 1 2 6 2 6 6 5 5 6 3 1h49l47-1zM276 406l1-1v-9l-1-9-61-1h-61l-1 1-2 1v17l2 1 2 1h60zM107 155l1-2v-50l-1-2-1-2H83l-1 2-1 2v50l1 2 1 2h23zm32-55V72h-26v55l1 1h12l13-1zm31 0V72h-12l-13-1v2l-1 1v53l1 1h12l13-1zm32 2V74l-1-3-12 1h-13v56h13l13-1zm31-2V72h-26v55l1 1h12l13-1zm32 26-1-51v-3h-13l-12-1-1 2v53l1 2h25zm31-26V72h-26v55l1 1h12l13-1zm31 0V72h-26v56h13l13-1z"/><path fill="#451" d="m52 1064-1-14v-11l3-11 3-11h2l2-1 2 6 2 7 6 5 5 6h4l47 1 43 1 4-1 4-1 5-5 5-6 2-6 2-6 9-1h9l3-4 3-3V764l-1-245-3-4-4-5 2-23 2-24 1-2-2-1H77l-3-2c-4-2-8-5-9-10l-1-4V205h1l5-3 3-3v-15l-3-3-5-3h-1v-67l27-27 27-26h128l2-1 1-1v-1c-1-1 1-21 2-33l2-9 1-2 1-2 30-1h551l45 1v12l-3 18a3518 3518 0 0 1-25 116v2l3 2 2 1 27 3c46 4 74 8 77 10l1 1-7 3-6 1h-15l-7-1-6-2-18-1-18-1-7-2-7-2h-24l-28-1-4-1-4-4-4-4h-6l-21 2-15 1h-6l-17-3-9-2-22-3-22-2-12 2-11 1-5 2-4 2-5 6-5 6-3 7-4 7v52c-2 70-3 351-4 509v128l10 14c5 8 10 16 12 17l2 2 6 1h36l57-2a2423 2423 0 0 0 131-7l8-1 6 3 5 3 21-2 20-2 6 1h6l3-1 5-5c3-3 8-5 10-5h2v4l-4 3-4 3-6 4-7 3-8 1-116 4-122 5-4 1-1 4-9 50-16 95v1H52Zm327-28 6-6 3-4 2-6 2-5h8l9-1 3-3 3-3V517l-3-3-4-4h-42v-9l-1-8-4-4-4-4h-61l-4 4-4 4v8l-1 9h-42l-3 4-4 3v245l-1 244 3 4 4 4h9l8 1 2 6 2 6 6 5 5 6 3 1h49l47-1zM276 406l1-1v-9l-1-9-61-1h-61l-1 1-2 1v17l2 1 2 1h60zM108 128v-28H81v55l1 2 13-1h13zm93 1 1-2V72l-1-1-12-1h-10l-2 1-2 2v54l1 1 1 1h10l12 1zm32-1 1-1V74l-1-2-2-2h-22l-2 2-1 2v51l1 2 2 3 11-1h12zm-94 0 1-2V74l-1-2-2-2h-22l-2 2-1 1v53l1 1 1 2h24zm31 0 1-2V73l-2-2-2-1h-9l-12 1-2 1v56l1 1h24zm94 0h1V73l-2-2-2-1h-9l-12 1-2 1v56zm32-28V72l-1-1-1-1h-21l-3 1-2 2v28l1 28h13l14-1zm31 28 1-2V73l-2-2-2-1h-21l-2 2-2 2v50l1 2 1 3h25zm579 625-13-2-10-1-4-2-13-7-9-6-8 1h-8l-10 3-10 3h-3l-10 3-6 2h-22l-23 1-3-2-3-2-2-4-2-5 1-4v-4l3-2 2-2 5-1h6v-1l1-1 2-45 1-46-1-2-1-3-4-1-8-1h-5l-2-2-2-3v-9l2-3 1-2 3-1 4-1 23-1h21l9 2 8 1 3 3 4 5 2 2 6 1 7 1h13l16-1h3v-7l4-1 14-2 9-1h35l3 1 2 1 2 3 1 4v8l-1 2-2 3h-2l-3 1-1 2-1 2-1 42-2 47v7l6 2 6 2v2l1 3-1 5c-1 7-1 7-13 11l-10 3h-4zm-72-240-10-1-6-3-5-2-7-6-10-10-3-4-1-5-6-36v-4l4-9 6-13 2-4 9-8 8-9 5-2 5-1h39l5 3 11 6 5 4 3 5 4 5v4l1 4 6 4 7 4h1l-1-6-1-6-2-4-3-5-9-8-9-8v-3l2-2 3-1 5 2 6 2 5 4 6 4 5 6c6 7 10 15 12 22l15 33c3 3 5 8 8 20l2 11-1 3-1 3-2 1-5 1h-4l-2-3-3-3-7-20-9-23-2-3-2-1-3-1-2-3c-4-5-5-3-6 15l-1 14-2 4-2 5-5 6c-7 7-20 17-26 21l-6 2-7 1h-8zm-91-16-2-3v-11l4-12a3686 3686 0 0 1 14-41l1-5 5-8 13-15 8-8 4-1 3-1 3 1 3 2v3l-5 4-5 4-8 17a276 276 0 0 0-18 39 234 234 0 0 0-14 34l-2 3h-3zm179-117a10123 10123 0 0 0-188-5l-51-1-7-1-7-1-3-2-2-2-2-6-3-5V215l2-10 1-10 2-5 2-4 3-1 3-2h7l31 2a5874 5874 0 0 0 264 15l26 1 2 3 6 6 4 5-1 4-1 5 1 3 1 2-1 18-2 70-1 53-2 5-3 5z"/><path fill="#4e3723" d="m52 1064-1-14v-11l3-11 3-11h2l2-1 2 6 2 7 6 5 5 6h4l47 1 43 1 4-1 4-1 5-5 5-6 2-6 2-6 9-1h9l3-4 3-3V764l-1-245-3-4-4-5 2-23 2-24 1-2-2-1H77l-3-2c-4-2-8-5-9-10l-1-4V205h1l5-3 3-3v-15l-3-3-5-3h-1v-67l27-27 27-26 64-1h66l1-1v-8c1-12 2-27 4-33l2-5 3-1 2-1h254l254-1 57 1 56 1v12l-4 21c-6 29-18 88-21 97l-2 7-2 2-6 3-4 2-1-2-2-1-8-1-13-2-7-1-40-1-40-1-7-3-7-2-10-1a1916 1916 0 0 0-106-8l-10-1-2 2-14 12-11 11-3 5-2 5-1 6-3 25-1 18-1 97-1 138-1 41-1 1-4 1h-3l-13 6-16 10-4 3-1 2c-1 3 0 4 4 1l3-2h5l5 1 3 2 5 4 1 3v11l-2 3-2 4-4 2-5 2-4-1h-5l-2-3-3-4c0-2-1-3-2-3h-1v6l2 3c3 4 12 11 23 18l15 9 5 3v5l1 4v75l-1 151-1 77 3 5c6 10 14 21 19 26l5 5 7 3 6 3h71l21-1 24-2h3l1 4v3l-2 16-8 43-13 76-1 4H52Zm327-28 6-6 3-4 2-6 2-5h8l9-1 3-3 3-3V517l-3-3-4-4h-42v-9l-1-8-4-4-4-4h-61l-4 4-4 4v8l-1 9h-42l-3 4-4 3v245l-1 244 3 4 4 4h9l8 1 2 6 2 6 6 5 5 6 3 1h49l47-1zM276 406l1-1v-9l-1-9-61-1h-61l-1 1-2 1v17l2 1 2 1h60zM106 157l2-1V99h-3l-13-1-10 1h-1l-1 1 1 28v28l1 1 1 1h11zm96-29 1-3V73l-1-1-1-2h-24l-1 1-1 1v56l11 1 13 1h1zm32 0V73l-1-1-1-2h-24l-1 2-1 1v54l1 1 1 2 13-1h12zm-94-27V73l-1-1-1-2h-24l-1 2-1 1v55l1 1h13l14-1zm31 27v-28l1-28-2-1-1-1h-24l-1 2-1 2v51l1 2 1 2h25zm94-28V72l-1-1-1-1h-24l-1 2-2 2v51l2 2 1 2h13l13-1zm32 27V74l-1-2-1-2h-12l-13 1-2 1v57h28zm31-26V73l-1-1-1-2h-24l-1 2-2 1v26l1 28 1 2h13l14-1zm310 805-19-3c-24-3-29-5-35-13l-7-10-4-4-1-8-1-7V695l1-22 2-47 1-25-3-7-2-7 2-4 2-4 1-10v-10l1-53c1-103 7-314 9-327l1-5 3-1 19-6 16-4 6-3 6-2h12l1 1v4l-6 13-7 12v47l-3 438v171l1 19 1 20 9 9 8 9v2l-1 3-1 2h-4zm266-158-4-1-3-1v-3l1-3-4-1-3-2-14-2-31-2-18-1h-12l-17 2-6 1-4 3-3 3-4 1-4 1h-19l-2-1-5-2-1-2v-6l1-1 2-2 7-1 6-1 2-3 1-4v-99l-1-2-1-1-7-1c-7-1-9-2-10-5l-2-2 2-3 2-2 4-1 5-2 16 1h17l5 6 4 5 4 1 3 2h25l25 1h12l12-1 1-2 2-2 2-3 2-2 10-1 9-1h12l11 1 2 3 2 2-2 3-1 3-5 2-4 3-1 2v2l-1 50-1 51 2 3 1 2 4 1 3 1 2 2 2 1v6l-4 2-4 2zm-65-237-9-1-4-2c-6-2-13-8-21-15l-8-7-1-5-3-15-2-10v-16l3-6 13-21 1-2 5-1h5l1-3v-3h1l5 1 3 1 5-2 10-1h5l13 3 12 4 3 2 4 2 1 3 4 6 4 6 3 3 2 2 2 4 1 4v8l-1 17-1 8-3 6-2 5-11 10-11 11-3 2-4 2zm98-13-3-3-3-11c-5-16-18-49-23-60l-4-10-7-6-6-8v-1h4l4 1 4 3 5 5 5 6 3 4 3 6c9 16 26 60 28 69l1 4-1 2-1 2h-6zm14-121-167-4-102-3-14-1-2-2-1-1V233l1-19 1-19 2-3 1-3h26l36 2a17488 17488 0 0 0 231 12l29 1 4 1 4 1 2 3 2 4v11l-1 79v67l-2 2-3 4-3 1z"/><path fill="#45321b" d="m112 1066 1-13 2-11h57l4-2 5-2 4-5 4-5 2-6 2-6 9 1h8l3-3 3-3V890l1-120 2-4 2-4 5-4 4-3v-5l-4-6c-2-3-5-7-6-11l-2-5-1-24-1-104v-80l-1-2-4-5-2-2 2-22 3-24v-2l-2-2-1-1H77l-3-2c-4-2-8-5-9-10l-1-4V205h1l5-3 3-3v-15l-3-3-5-3h-1v-67l27-27 27-26h129l3-3 2-3v-4c0-9 5-36 7-38l42-1h41l2 1 3 1v43l1 1 6 3 5 3 2 4 3 4v60l1 61h-6l-2 3-2 2v5l1 1 2 2v25l-2 1-1 2v4l3 3 5 3h1v203l-1 4-1 4-3 3-6 4c-3 1-3 3-1 3l6-2 4-3 3-5 2-5 1-34 1-32 2-4 2-3 3-12 2-12 3-5 4-7 5-9 2-5 4-4 3-3 1-5 6-16 5-11 2-8 2-8 8-15a223 223 0 0 0 14-31l4-9 2-9c3-14 10-30 17-38l4-5 3-7a608 608 0 0 1 20-44l5-12 5-9 6-8 2-6c1-4 3-10 6-14l7-16 8-16c3-3 6-9 7-12l4-7 1-2h20l20-1 9 1 10 2 2 1v4l-7 7-6 6-5 10-6 14-7 16-6 12-4 4-4 5v2l-4 11c-6 12-10 25-12 35-1 12 0 12 14 1l12-8h5l7-2c6-3 13-4 30-5l16-1v1c0 3-14 5-25 5h-6l-4 3-13 12-10 10-3 5-2 5-1 6-3 25-1 18-1 97-2 179-6 2-4 1-13 6-12 7-7 6-8 9-2 3v7l2 3 5 7c4 5 13 12 24 19l15 9 5 3v5l1 4v75l-1 151-1 77 3 5c6 10 14 21 19 26l5 5 7 3 6 3 12 1h13l5 2 5 2 2 2 2 2-1 2v2l-7 2-14 5-8 3v2c0 2 4 4 10 6l7 3 1 1v10a1136 1136 0 0 1-6 93v5h-93v-22l4-8 3-9 2-10c2-13 2-22 4-62l2-32 1-5 2-4-1-4-2-3-4-4-7-4-2-1-3 1-3 2-3-1-2-1-4-6-5-7-5-2-6-3-1-7v-7l1-9 1-9 2-76 1-100v-25h-38l-37-1-1-3V517l-4-4-3-3h-21l-22-1v-8l-1-8-3-4-4-4h-63l-4 4-3 4-1 8v8l-21 1h-21l-4 4-3 3-1 65v246l1 180 3 4 3 3 8-1h9l1 5 1 5 4 5 3 5 4 2 5 3 10 1h11l-1 5-1 14-1 9H112zm371-644h6l1-1 2-2 1-41 1-45v-4l-3-6-3-6 2-13 1-20v-6l-1-2-1-1h-1l-2 1-2 6-6 14-5 8-3 10a868 868 0 0 1-23 61l-1 4-6 7-6 7v13l-6 6-5 8v1l3 1c6 1 47 2 57 0m-207-16 1-1v-9l-1-9-61-1h-61l-1 1-2 1v17l2 1 2 1h60zM108 156l2-2v-52l-2-2-1-2H82l-1 2-1 2v53l1 1 1 2h24zm93-27 2-1V72l-1-2h-26l-1 3-1 3v49l1 2 1 2h11l11 1zm32-1h1V71h-28v28l-1 28 2 1 1 2 12-1zm-93-28V71h-13l-14-1v1l-1 1v56l1 1h13l14-1zm31 28 1-2V74l-1-2-1-2h-25l-1 2-1 1v55l1 1h26zm95-1V74l-1-2-1-2h-25l-1 2-2 1v26l1 28 1 2h27zm31-27V71h-28v29l-1 29h15l14-1zm31 0V71h-28v58h14l14-1zm39 959v-8l1-6 1-5 4-1h4l7-6 6-7 1-5 2-6h16l4-3 4-4v-89l5-3 4-2 2-3 3-8 2-5 3-3 3-2 4-1h4l4 3 4 3v3l2 2 3 1h6l6 7 6 7 1 5 1 16 1 10-1 4-1 5-3 3c-4 4-4 6-5 19l-1 11-2 5-3 7-5 64v1h-93Zm271-153-19-3c-24-3-29-5-35-13l-7-10-4-4-1-8-1-7V695l1-22 2-47 1-25-3-7-2-7 2-4 2-4 1-10v-10l1-53c1-103 7-314 9-327l1-5 3-1 19-6 16-4 6-3 6-2h12l1 1v4l-6 13-7 12v47l-3 438v171l1 19 1 20 9 9 8 9v2l-1 3-1 2h-4zm266-158-4-1-3-1v-3l1-3-4-1-8-3a317 317 0 0 1-24-2l-15-2h-41l-7 2-6 1-4 3-3 3-4 1-4 1h-19l-2-1-5-2-1-2v-6l1-1 2-2 7-1 6-1 2-3 1-4v-99l-1-2-1-1-7-1c-7-1-9-2-10-5l-2-2 2-3 2-2 4-1 5-2 16 1h17l5 6 4 5 4 1 3 2h25l25 1h12l12-1 1-2 2-2 2-3 2-2 10-1 9-1h12l11 1 2 3 2 2-2 3-1 3-5 2-4 3-1 2v2l-1 50-1 51 2 3 1 2 4 1 3 1 2 2 2 1v6l-4 2-4 2zm-65-237-9-1-4-2c-6-2-13-8-21-15l-8-7-1-5-3-15-2-10v-16l3-6 13-21 1-2 5-1h5l1-3v-3h1l5 1 3 1 5-2 10-1h5l13 3 12 4 3 2 4 2 1 3 4 6 4 6 3 3 2 2 2 4 1 4v8l-1 17-1 8-3 6-2 5-11 10-11 11-3 2-4 2zm98-13-3-3-3-11c-5-16-18-49-23-60l-4-10-7-6-6-8v-1h4l4 1 4 3 5 5 5 6 3 4 3 6c9 16 26 60 28 69l1 4-1 2-1 2h-6zm14-121-167-4-102-3-14-1-2-2-1-1V233l1-19 1-19 2-3 1-3h26l36 2a17488 17488 0 0 0 231 12l29 1 4 1 4 1 2 3 2 4v11l-1 79v67l-2 2-3 4-3 1zM416 202l-1-2-1-6-2-7v-30l-1-30 1-26 3-57 2-31 1-2 2-2h34l35-1 7 2 7 1v1a287 287 0 0 1-15 46l-4 10-9 23a380 380 0 0 1-16 44l-2 6-3 5-4 9-1 5-4 4-7 14c-9 21-16 29-22 24"/><path fill="#34470a" d="m119 1066 2-10 2-12v-2h50l3-1 3-1 5-5 5-5 2-6 2-6 8-1h8l4-3 4-4V786l2-4c2-2 3-7 4-11l2-7 2-1 5-4 4-3v252l4 4 4 3h17l1 6 2 6 6 6 5 5 3 1 2 1h16v2l-1 11-2 12v3H119Zm448-140-11-5-8-4-10-10a153 153 0 0 0-42-32l-1-2V649l-2-1-1-1h-75l-1-3V517l-4-4-3-3h-22l-21-1v-8l-1-9-3-3-3-4h-65l-3 4-3 3-1 9v8l-21 1h-22l-3 4-3 3v37l-1 115-1 79-1-2c-1-5-4-10-8-14l-3-4-1-3-1-3 2-5 1-5-1-1-2-1-3-1-2-2v-7l3-3 3-4-1-1-1-1h-2l-1 1-1-37-1-86v-49l-3-4-2-4 2-24 2-25-2-1-2-2H77l-3-2c-4-2-8-5-9-10l-1-4V205h1l5-3 3-3v-15l-3-3-5-3h-1v-67l27-27 27-26h128l4-2 3-2 1-6a197 197 0 0 1 5-30l1-7h79l1 12 2 22 1 10h3l8 3 5 3 2 4 3 4v60l1 61h-6l-1 2-2 2v42l2 2 5 3h1v203l-1 4-1 4-3 3-6 4c-2 1-3 2-2 3l1 1 4-2c6-3 7-4 9-8l2-3v-11l1-28 1-18 1-1 5-3 4-1v-2l1-12 1-9 6-12 6-13 1-6 2-7 3-3 3-4 1-4 5-9 4-5 3-12 3-12 10-20 23-51 3-9 5-6 6-6 2-6 3-5 2-10 2-9 3-4 5-7 2-3 2-7 1-8 5-9 5-10 5-5 6-6 1-8 1-9 5-10 5-10 4-10a244 244 0 0 1 15-36v-1l2-1 3-1h41l1 1h2l-1 3-1 3-8 8-8 8v2l-1 11-1 8-4 8-5 12-2 4-4 5-4 6-5 11-4 10-8 23a446 446 0 0 1-13 42l-2 8v3l1 3 1 1 5-1h3l1-3 3-10 2-7 4-7 3-8c0-2 11-11 17-15l6-4 8-1h7l2 1 1 1-9 9-9 9-2 4c-3 7-4 15-6 36l-1 18-1 97-1 138-1 41-1 1-4 1h-3l-13 6a178 178 0 0 0-25 15l-5 5-2 5-2 4 2 4 1 4 3 4 4 3 6 5 5 5 7 4 16 10 10 6v3l1 4v76l-1 152-1 77 3 5c5 10 14 21 18 25l5 5v6l-2 2zm-75-503 2-2 1-4 1-5v-55l1-55-1-20-2-22-1-2h-5l-5 5-4 4-5 17-6 16-1 8c-1 8-2 9-7 17l-10 21-11 22-4 6-3 1-3 2-2 3-1 3v7l-1 11-1 3-6 7-6 6v2l2 3 2 1 3 1 7 1h64zm-216-17 1-1v-9l-1-9-61-1h-61l-1 1-2 1v17l2 1 2 1h60zM108 156l2-1v-54l-2-2-1-1H82l-1 1-1 2v54l1 1 1 2h25zm31-28 3-2V76l-2-3-1-3h-26l-1 3-1 3v51l1 2h2l12 1h11zm32 0 1-2V73l-1-2-2-1-13 1h-13v57l4 1 13 1h10zm31 1 1-1V71h-13l-14-1-1 1-1 2v54c2 3 4 3 15 3h11zm30 0 2-1V71h-28v28l-1 28 2 1 2 2h20zm33-1 1-2V73l-1-1v-2l-14 1h-14v28l-1 29 3 1 2 1h12l11-1zm30 1 2-1V71h-14l-13-1-1 2-2 2v52l1 1c2 2 4 3 14 3h10zm33 0 1-1V78l-1-4v-3h-28v28l-1 29 3 1 2 1h23zm310 777-19-3c-24-3-29-5-35-13l-7-10-4-4-1-8-1-7V695l1-22 2-47 1-25-3-7-2-7 2-4 2-4 1-10v-10l1-53c1-103 7-314 9-327l1-5 3-1 19-6 16-4 6-3 6-2h12l1 1v4l-6 13-7 12v47l-3 438v171l1 19 1 20 9 9 8 9v2l-1 3-1 2h-4zm266-158-4-1-3-1v-3l1-3-3-1-3-1v-2l-3-1c-6-2-21-3-46-4l-25-1v3h-7l-12 1-6 1-4 3-3 3-4 1-4 1h-19l-2-1-5-2-1-2v-6l1-1 2-2 7-1 6-1 2-3 1-4v-99l-1-2-1-1-7-1c-7-1-9-2-10-5l-2-2 2-3 2-2 4-1 5-2 16 1h17l5 6 4 5 4 1 3 2h25l25 1h12l12-1 1-2 2-2 2-3 2-2 10-1 9-1h12l11 1 2 3 2 2-2 3-1 3-5 2-4 3-1 2v2l-1 50-1 51 2 3 1 2 4 1 3 1 2 2 2 1v6l-4 2-4 2zm-65-237-9-1-4-2c-6-2-13-8-21-15l-8-7-1-5-3-15-2-10v-16l3-6 13-21 1-2 5-1h5l1-3v-3h1l5 1 3 1 5-2 10-1h5l13 3 12 4 3 2 4 2 1 3 4 6 4 6 3 3 2 2 2 4 1 4v8l-1 17-1 8-3 6-2 5-11 10-11 11-3 2-4 2zm98-13-3-3-3-11c-5-16-18-49-23-60l-4-10-7-6-6-8v-1h4l4 1 4 3 5 5 5 6 3 4 3 6c9 16 26 60 28 69l1 4-1 2-1 2h-6zm14-121-167-4-102-3-14-1-2-2-1-1V233l1-19 1-19 2-3 1-3h26l36 2a17488 17488 0 0 0 231 12l29 1 4 1 4 1 2 3 2 4v11l-1 79v67l-2 2-3 4-3 1zM418 188l-2-4v-33c1-45 4-123 6-136v-4h72l2 1 2 1-3 4-4 4-1 7-4 17-2 10-5 10-5 13-3 8-4 10-1 4-7 8-6 7v7l1 6-4 9-5 11v3l-4 5-4 5-2 7-1 7-4 8-4 8-3 1h-3z"/><path fill="#342c15" d="m119 1066 2-10 2-12v-2h50l3-1 3-1 5-5 5-5 2-6 2-6 8-1h8l4-3 4-4V786l2-4c2-2 3-7 4-11l2-7 2-1 5-4 4-3v252l4 4 4 3h17l1 6 2 6 6 6 5 5 3 1 2 1h16v2l-1 11-2 12v3H119Zm448-140-21-11-2-2 2-2 2-2-2-3c-3-7-8-11-9-7l-1 3-1 2-2-2-2-2 3-3 3-3-2-5-3-11-2-5V715l1-47 1-48 1-10 2-13 1-3h2l2 1 1 5 1 85 1 139 1 59 1 6 2 6 3 6 5 7 2 3 9 6c9 6 9 6 7 9zM236 746c-1-3-5-10-9-14l-3-4-1-3-1-3 2-5 1-5-1-1-2-1-3-1-2-2v-7l3-3 3-4-1-1-1-1h-2l-1 1-1-37-1-86v-49l-3-4-2-4 2-24 2-25-2-1-2-2H77l-3-2c-4-2-8-5-9-10l-1-4V205h1l5-3 3-3v-15l-3-3-5-3h-1v-67l27-27 27-26h128l4-2 3-2 1-6a197 197 0 0 1 5-30l1-7h79l1 12 2 22 1 10h3l8 3 5 3 2 4 3 4v60l1 61h-6l-1 2-2 2v42l2 2 5 3h1v203l-1 4-1 4-3 3-6 4c-2 1-3 2-2 3l1 1 4-2c6-3 7-4 9-8l2-3v-11l1-28 1-18 1-1 5-3 4-1v-2l1-12 1-9 6-12 6-13 1-6 2-7 3-3 3-4 1-4 5-9 4-5 3-12 3-12 10-20 23-51 3-9 5-6 6-6 2-6 3-5 2-10 2-9 3-4 5-7 2-3 2-7 1-8 5-9 5-10 5-5 6-6 1-8 1-9 5-10 5-10 4-10a244 244 0 0 1 15-36v-1l2-1 3-1h41l1 1h2l-1 3-1 3-8 8-8 8v2l-1 11-1 8-4 8-5 12-2 4-4 5-4 6-5 11-4 10-8 23c-3 13-8 25-9 28-3 6-6 19-6 24v2l-1 1-5 3-3 2-2 4-3 5-1 4c-2 5-4 17-6 32l-2 16-1 3h-4l-3 1-3 4-4 4-5 15c-5 15-7 21-8 29v5l-5 7-4 7-7 16-11 22-4 6-3 1-3 2-2 3-1 3v7l-1 11-1 3-6 7-6 6v2l2 3 2 1 4 1 4 1h63l3-1 3-1 2 3 2 3 1 18 2 25 1 7 2 4 2 3-2 2-2 3v2l1 2 2 1h2l1-2 2-4v-3h1l5 2 3 2 3-1 3-1 2-3 2-3 1-9a49337 49337 0 0 0 6-52l1-13-1-5-1-6-1-92v-93l-1-5-3-11-2-8 1-3 3-9 2-7 4-7 3-8c0-2 10-11 17-15l5-4h10l-11 15-12 17-1 2-2 102-2 156-1 55-1 1-13 10-13 8-8 8-8 7-2 4-2 5 2 4 1 4 4 4 5 9 2 3-4 4-4 3-1 4-1 4-1 29-2 39v10l-2 2-2 1-38 1h-38l-1-3V517l-4-4-3-3h-22l-21-1v-8l-1-9-3-3-3-4h-65l-3 4-3 3-1 9v8l-21 1h-22l-3 4-3 3-1 56zm40-340 1-1v-9l-1-9-61-1h-61l-1 1-2 1v17l2 1 2 1h60zM108 156l2-1v-54l-2-2-1-1H82l-1 1-1 2v54l1 1 1 2h25zm31-28 3-2V76l-2-3-1-3h-26l-1 3-1 3v51l1 2h2l12 1h11zm32 0 1-2V73l-1-2-2-1-13 1h-13v57l4 1 13 1h10zm31 1 1-1V71h-13l-14-1-1 1-1 2v54c2 3 4 3 15 3h11zm30 0 2-1V71h-28v28l-1 28 2 1 2 2h20zm33-1 1-2V73l-1-1v-2l-14 1h-14v28l-1 29 3 1 2 1h12l11-1zm30 1 2-1V71h-14l-13-1-1 2-2 2v52l1 1c2 2 4 3 14 3h10zm33 0 1-1V78l-1-4v-3h-28v28l-1 29 3 1 2 1h23zm561 606-12-2-10-1-30-1-43-1-13-1-3-2-2-1-1-3-1-4-1-36v-36l1-11 1-11 1-3 2-3 4-1 3-1 58 2 67 3h8l1 2 2 1v98l-1 7-3 3-3 3h-23zm-55-257-4-1-1-2c-3-4-5-8-6-13l-1-6 1-6 1-6 4-4 4-4 6-3 5-2h3c3 0 6 1 12 5l4 4 3 5 3 6v3l-2 10-2 5-4 5-4 4-8 1h-9zm75-114a6051 6051 0 0 0-190-5l-25-1-5-2-6-1-1-3-2-3V219l1-6 2-6 2-3 2-2 34 1a1256 1256 0 0 1 125 6c84 3 127 6 137 10l3 1 2 2 2 3 1 10 1 11 1 53 1 53-2 4-1 4-4 2-4 2zM418 188l-2-4v-33c1-45 4-123 6-136v-4h72l2 1 2 1-3 4-4 4-1 7-4 17-2 10-5 10-5 13-3 8-4 10-1 4-7 8-6 7v7l1 6-4 9-5 11v3l-4 5-4 5-2 7-1 7-4 8-4 8-3 1h-3z"/><path fill="#132d2e" d="M551 909c-2-1-11-14-15-21l-2-6-1-107V668l1-35 2-36v-2h3l1 4v4l1 135c2 159 1 153 9 164l3 5v2zm323-179-54-2-41-1-1-2-1-1V622l1-1 2-1h20l68 2 49 2 1 1 1 1-1 50v51l-1 2-1 1zm-657-92-1-7V519l-2-3-2-4 2-23 2-25 1-2-4-1-4-1H77l-3-2c-4-2-8-5-9-10l-1-4V205h1l5-3 3-3v-15l-3-3-5-3h-1v-67l27-27 27-26 65-1 114-1 50-1 6 3 6 3 2 4 3 4v60l1 61h-6l-1 2-2 2v42l2 2 5 3h1v203l-1 4-1 4-3 3-5 4-3 1-1 2h-69l36 1h36l4-1c5-3 7-5 10-10l2-5v-18h123l2 2 1 1 1 36v35l1 1 1 1 4-3 9-5 9-5 5-2 5-5 4-6 1-7 1-6V201l1-12 1-11 2-6 2-5h2l2-1v9l1 8-1 70-1 71-2 22-1 21v116l-12 8c-14 9-28 20-36 29l-6 6v1l3 5 3 3 1 8 1 8-1 40-1 45-1 6h-7l-38 1h-31V517l-4-4-5-4h-41v-17l-5-4-4-4h-63l-4 4-4 4v17h-41l-3 3c-3 1-5 3-5 4l-1 2v115l-1 11h-18zm59-232 1-1v-9l-1-9-61-1h-61l-1 1-2 1v17l2 1 2 1h60zM108 156l2-1v-54l-2-2-1-1H82l-1 1-1 2v55l1 2h26zm31-28 3-1V73l-2-1-1-2h-27l-1 2v55l1 1 2 2h23zm32 1 1-2V71h-29v56l1 2 1 1h24zm31 0 1-2V71h-14l-14-1-1 2v56l1 1 2 1h24zm32-1 1-1V75l-1-2-1-3-13 1h-14v29l-1 28 2 1 1 1h24zm31 1 1-2V71h-29v28l-1 28 2 2 1 1h24zm30 0 2-2V71h-14l-14-1-1 2-1 1v54l2 1 2 2h23zm33-1 1-1V73l-1-1-1-2-13 1h-14v28l-1 28 2 2 2 1h23zm509 347-6-2-2-2-2-2-1-7-1-7 1-4v-4l3-4 2-3 5-4 5-3h7l5 3 5 3 3 5 3 4v6l1 6-3 5-3 6-3 3-3 2h-5l-5 1zm103-114a8314 8314 0 0 0-248-8l-6-1-1-2-2-2 1-3v-4l2-1 2-1 6 3c8 4 10 4 14 2l3-2 1-3 1-6v-3l-3-3-4-4h-7l-5 4-5 4-2-1h-1l-1-5-1-5 1-55v-56l1-1 2-2h33l59 3 194 11 10 1 2 1 1 2 1 26 1 27-1 41v41l-2 1-2 2h-13z"/><path fill="#261702" d="M551 909c-2-1-11-14-15-21l-2-6-1-107V668l1-35 2-36v-2h3l1 4v4l1 135c2 159 1 153 9 164l3 5v2zm323-179-54-2-41-1-1-2-1-1V622l1-1 2-1h20l68 2 49 2 1 1 1 1-1 50v51l-1 2-1 1zm-657-92-1-7V519l-2-3-2-4 2-24 2-25h2l1-1h53l68 1h14l4-2c4-2 7-5 9-10l2-4v-18h123l2 2 1 1 1 36v35l1 1 1 1 4-3 9-5 9-5 5-2 5-5 4-6 1-7 1-6V201l1-12 1-11 2-6 2-5h2l2-1v9l1 8-1 70-1 71-2 22-1 21v116l-12 8c-14 9-28 20-36 29l-6 6v1l3 5 3 3 1 8 1 8-1 40-1 45-1 6h-7l-38 1h-31V517l-4-4-5-4h-41v-17l-5-4-4-4h-63l-4 4-4 4v17h-41l-3 3c-3 1-5 3-5 4l-1 2v115l-1 11h-18zm620-163-6-2-2-2-2-2-1-7-1-7 1-4v-4l3-4 2-3 5-4 5-3h7l5 3 5 3 3 5 3 4v6l1 6-3 5-3 6-3 3-3 2h-5l-5 1zm103-114a8314 8314 0 0 0-248-8l-6-1-1-2-2-2 1-3v-4l2-1 2-1 6 3c8 4 10 4 14 2l3-2 1-3 1-6v-3l-3-3-4-4h-7l-5 4-5 4-2-1h-1l-1-5-1-5 1-55v-56l1-1 2-2h33l59 3 194 11 10 1 2 1 1 2 1 26 1 27-1 41v41l-2 1-2 2h-13z"/><path fill="#100d06" d="m850 727-45-2-23-1-2-1-2-1 1-48v-48l1-1 6-1 6-1 50 1 62 2 12 1v93l-1 4-1 4h-20zM217 580v-60l-2-3-2-3 2-25 3-26v-1h62v15l-1 3-4 4-5 4-1 5-1 10v6h-4v-16l-2-2-2-3-2 1h-1l-1 3-1 3v14h-10l-4 3-4 4-1 60v59l-3 2-3 1-6 1h-7zm260 58-5-2-3-1-1-2-1-3v-10l3-55 1-3 4-3 4-2 3-5 4-4h4v6l1 6-1 37v36l-2 3-2 3h-3zm362-164-5-1-3-4-2-3-2-6-1-6 2-5 2-4 6-6 5-5h6l3 2 7 5 2 3 3 4c4 9 0 22-9 26l-3 2h-4zm90-115a2420 2420 0 0 0-141-4l-12-1-1-1-1-1 4-4 5-7 1-3-3-5-2-4-4-2-3-2-5 1h-4l-2 2-1 1-1 6v6l3 5c4 5 4 5 0 7l-3 1h-7l-8-1h-2v-2l4-7c4-6 4-7 2-12l-1-5-2-1-2-2-4-1h-5l-4 2-3 3-2 3-2 4v2l6 8 6 6-1 1-1 1h-18l-23-2h-5v-2l-1-2 2-2 3-2 5 2 8 2h3l2-3 3-2 1-4 2-4-1-4-1-4-4-2-5-2-4 1h-9l-4 1-1-4-1-4 1-3 2-4 1-1 6 2 6 2 4-1h5l2-2 2-2v-3c0-5-2-10-6-13l-3-4-8 3-9 2-1-2-1-2v-11l1-2 2-1h2l4 2c6 3 9 3 13 1l3-2 2-3 1-3v-8l-2-3-1-3-4-2-3-1-7 2-8 4h-1l-2-3-1-3 1-7 1-9 1-1h1l3 2 5 4 3 2h6l4-2 3-2 2-4 1-4-1-2-4-6-3-3-3-1-2-1-3 1c-2 0-4 2-6 4l-5 3h-2l1-5 1-9v-4l1-1h2l28 1a4301 4301 0 0 1 158 8c62 4 99 6 103 8h2l1 3 1 7v4h-1l-2 1-5-3-5-4h-5l-3 2-4 5-1 4v8l3 3 3 2 4 1h3l5-1 5-1 2 1 1 1v9l-1 2-2 2-4-2-4-2h-3l-6 1-3 2-2 3-2 4 1 4 1 3 3 3 3 4h7l4-3c6-4 7-3 8 9l1 7h-2l-2 1-4-3-4-2h-3l-6 1-3 2-1 3-2 9 1 3 3 3 3 3h8l4-3 5-2 1 1 1 1v37l-1 2-1 1h-8l-1-1-1-1 4-4 3-3 1-4 1-5-1-3-1-2-3-3-2-2h-8l-3 3-4 6-1 3v2l1 3 4 4 3 4v2l-1 1h-14z"/></svg>