<svg xmlns="http://www.w3.org/2000/svg" xml:space="preserve" viewBox="0 0 26.458 26.458"><path d="M.657 26.277c-.05-.377-.017-.597.219-1.428.166-.586.175-.531-.098-.568-.359-.05-.351-.045-.419-.255-.11-.34-.11-.344.065-.582.222-.304 1.3-1.837 1.492-2.12.119-.176.19-.319.262-.53.306-.888.699-1.766 1.21-2.707.645-1.187.811-1.867.977-3.983.118-1.51.296-3.497.43-4.796.347-3.349.5-5.103.64-7.313.097-1.538.131-1.842.213-1.911C5.733.012 20.38-.02 20.965.05l.14.017-.016.177c-.02.22-.144.872-.407 2.134-.241 1.157-.25 1.205-.205 1.266.048.065.293.107 1.288.217 1.297.144 1.43.173 1.746.382.162.107.344.196.57.279.33.12.58.409.625.719.017.12.037 2.965.055 8.152l.028 7.967-.085.141c-.21.348-.38.487-.731.596a4 4 0 0 0-.499.209c-.502.255-.458.25-3.172.343-3.687.126-3.326.08-3.406.43a64 64 0 0 0-.593 3.233l-.014.087H.674Z" style="fill:#fc8301" transform="matrix(1 0 0 1.00468 1.383 0)"/><path d="M.657 26.277c-.05-.377-.017-.597.219-1.428.166-.586.175-.531-.098-.568-.359-.05-.351-.045-.419-.255-.11-.34-.11-.344.065-.582.222-.304 1.3-1.837 1.492-2.12.119-.176.19-.319.262-.53.306-.888.699-1.766 1.21-2.707.645-1.187.811-1.867.977-3.983.118-1.51.296-3.497.43-4.796.347-3.349.5-5.103.64-7.313.097-1.538.131-1.842.213-1.911C5.733.012 20.38-.02 20.965.05l.14.017-.016.177c-.02.22-.144.872-.407 2.134-.241 1.157-.25 1.205-.205 1.266.048.065.293.107 1.288.217 1.297.144 1.43.173 1.746.382.162.107.344.196.57.279.33.12.58.409.625.719.017.12.037 2.965.055 8.152l.028 7.967-.085.141c-.21.348-.38.487-.731.596a4 4 0 0 0-.499.209c-.502.255-.458.25-3.172.343-3.687.126-3.326.08-3.406.43a64 64 0 0 0-.593 3.233l-.014.087H.674Zm8.71-.827a.5.5 0 0 0-.086-.125c-.425-.514-1.036-1.448-1.429-2.181-.253-.472-.254-.46.066-.521 1.669-.322 3.984-1.377 5.316-2.421l.225-.175c1.73-1.345 3.317-3.26 4.523-5.459.259-.471 1.053-2.174 1.053-2.257 0-.035-.507.022-.745.084-.613.157-1.443.567-1.906.94-.145.116-.17.106-.307-.126a5 5 0 0 0-.248-.375c-.07-.093-.152-.205-.184-.25-.2-.277-.677-.705-.994-.893-.254-.15-.26-.148-.28.128-.19 2.515-1.631 5.132-3.674 6.672l-.314.24c-.941.723-2 1.287-3.196 1.704-.643.224-.58.247-.852-.302-.375-.754-.566-1.226-.936-2.311-.11-.324-.208-.595-.215-.603s-.077.12-.154.284c-.716 1.531-1.762 3.24-3.473 5.674-.296.42-.537.772-.535.781.002.019.026.023.781.135a288 288 0 0 1 2.117.343l.548.095.536.093c.079.013.25.043.379.067l.646.118c.267.05 1.017.195 1.43.277.288.057 1.171.244 1.503.318.312.07.405.08.405.046" style="fill:#c56b0a" transform="matrix(1 0 0 1.00468 1.383 0)"/><path d="M.665 26.234c-.027-.44-.008-.552.242-1.431.073-.26.127-.478.119-.486a2 2 0 0 0-.285-.054c-.324-.048-.322-.046-.402-.342-.06-.22-.061-.239-.02-.302.05-.08.363-.523.61-.863.15-.207.585-.83.973-1.394.151-.22.241-.385.265-.487.089-.38.72-1.82 1.148-2.618.363-.679.445-.856.598-1.305.262-.768.336-1.203.451-2.649.168-2.113.287-3.424.47-5.207.316-3.073.456-4.641.574-6.465C5.55.455 5.575.187 5.646.114c.076-.078 15.242-.12 15.409-.042.039.018.044.041.03.131-.05.337-.2 1.115-.406 2.103-.223 1.07-.253 1.25-.218 1.342.03.08.23.114 1.494.254 1.122.124 1.233.15 1.596.384.125.08.314.176.422.213.375.129.65.392.708.678.084.41.109 16.124.026 16.29a1.16 1.16 0 0 1-.734.611c-.108.03-.337.126-.51.214-.51.26-.482.257-4.428.385-2.021.065-2.068.072-2.13.287-.088.314-.52 2.636-.591 3.177l-.034.259H.674Zm8.78-.733a.6.6 0 0 0-.086-.14c-.75-.996-1.132-1.583-1.514-2.32-.161-.312-.166-.35-.04-.35.108-.002 1.122-.28 1.536-.422 1.83-.628 3.232-1.416 4.605-2.59 2.148-1.836 3.868-4.27 5.037-7.13.123-.3.116-.312-.176-.286-.666.059-1.467.37-2.16.84-.437.296-.408.281-.443.224-.469-.764-.918-1.271-1.425-1.609-.4-.266-.434-.255-.458.152-.214 3.705-3.237 7.244-7.341 8.592-.415.137-.365.164-.599-.32-.41-.852-.616-1.361-.943-2.339-.255-.763-.23-.747-.462-.276-.873 1.77-1.818 3.308-3.474 5.655-.646.914-.64.813-.051.9.264.038.452.067.757.118l.34.053c.24.037.448.071.647.107.126.022.559.095 1.26.211.532.088 1.476.26 2.237.408.464.09 2.087.426 2.362.49.248.056.392.068.392.032" style="fill:#485f12" transform="matrix(1 0 0 1.00468 1.383 0)"/><path d="M.707 26.278c-.057-.386.004-.721.344-1.897.018-.062-.048-.088-.319-.127-.31-.044-.309-.044-.374-.287-.078-.288-.076-.304.081-.518 1.192-1.626 1.71-2.42 1.874-2.876.329-.91.826-1.992 1.197-2.606.218-.36.328-.626.486-1.173.234-.812.283-1.145.42-2.819.173-2.113.307-3.573.496-5.395.261-2.512.448-4.69.563-6.559C5.591.146 5.6.105 5.909.072c.237-.025 12.452-.016 14.053.01L21.033.1l-.005.146c-.008.223-.407 2.283-.568 2.933-.101.409-.25.57-.434.474a.5.5 0 0 0-.224-.044.7.7 0 0 1-.236-.04c-.08-.035-.264-.048-.95-.066-1.222-.032-1.298-.037-1.447-.105-.15-.067-.476-.103-1.675-.183-.43-.029-.957-.066-1.169-.083-.456-.036-.405-.057-.786.318-.397.391-.422.466-.474 1.46-.007.138-.025 1.366-.039 2.729-.048 4.678-.038 4.452-.196 4.452-.141 0-.876.402-.876.48q.002.024.059.005c.37-.136.685.213.53.588-.107.26-.526.294-.66.053-.065-.116-.083-.083-.021.038.052.103.3.323.466.413.67.366.732.475.516.91-.06.122-.103.228-.095.236q.014.011.015-.012c0-.014.06-.127.134-.25.262-.436.676-1.464.676-1.677a.3.3 0 0 1 .028-.125c.015-.03.022-.067.016-.085-.007-.017-.025.002-.04.042-.056.142-.062.063-.045-.676l.042-1.954c.079-3.652.149-5.739.197-5.866.018-.046.202-.11.65-.227.17-.045.375-.111.453-.148.227-.105.502-.083.502.041 0 .03-.07.187-.155.35l-.154.298-.015.822c-.009.452-.023 1.894-.032 3.206s-.02 2.389-.024 2.394c-.01.011-.126-.05-.143-.076-.014-.02-.209-.109-.209-.094 0 .004.074.056.163.116.302.2.955.9 1.246 1.339.117.174.129.175.372.016a7 7 0 0 1 1.08-.553l.366-.148c.081-.036.137-.045.64-.103.379-.043.415-.057.341-.126-.09-.085-.078-.471.02-.661.254-.493.346-.607.49-.607.11 0 .116-.003.116-.078 0-.1.032-.118.138-.08.068.026.125.024.289-.01.227-.048.255-.044.722.092.259.076.418.17.418.244 0 .03.132.217.256.363.173.203.189.884.028 1.235-.073.16-.536.64-.698.723-.302.157-1.177.015-1.18-.191-.001-.096-.108.103-.303.564-.178.42-.491 1.082-.76 1.605a6 6 0 0 0-.198.412 1.7 1.7 0 0 1-.17.29 8 8 0 0 0-.279.422 18.5 18.5 0 0 1-2.36 3.087l-.531.563c-.2.213-.253.31-.071.13a1 1 0 0 1 .148-.12l.057-.031v.842c0 .463.008 1.033.017 1.266l.018.424.2.213c.337.356.28.526-.133.399a4 4 0 0 0-.478-.08c-.61-.076-.767-.138-.9-.354a3 3 0 0 0-.168-.237c-.104-.125-.109-.153-.137-.765-.018-.398-.031-.366.264-.61.135-.11.246-.207.246-.213s-.095.064-.21.156a3 3 0 0 1-.28.204c-.11.057-.46.31-.515.371-.027.03-.065.055-.084.055s-.035.02-.035.044c0 .04.005.04.05-.003.1-.092.114-.034.094.401l-.019.409.166.28c.216.365.429.59.666.704l.18.086.796-.003a26 26 0 0 0 1.435-.048c.35-.024.647-.035.658-.023.043.044-.064.732-.423 2.704l-.165.908H.725Zm8.731-.77c.005-.016-.136-.224-.315-.463-.609-.82-1.486-2.252-1.42-2.32.008-.007.147-.042.308-.077 4.666-1.002 8.66-4.628 10.88-9.875.23-.545.231-.538-.078-.512-.676.057-1.481.374-2.222.876-.398.27-.35.265-.477.047-.442-.754-1.285-1.575-1.684-1.64l-.09-.015-.018.309c-.207 3.68-3.158 7.193-7.207 8.577-.565.193-.487.226-.749-.31-.388-.796-.616-1.374-1.042-2.649-.128-.382-.12-.387-.46.292-.864 1.719-1.787 3.204-3.5 5.63-.211.299-.384.563-.384.587 0 .05.007.05.51.127 2.82.428 5.409.9 7.433 1.352.475.106.5.11.515.063m10.09-13.71c-.047-.186-.05-.238-.026-.379.016-.09.04-.255.053-.368.03-.272.09-.365.283-.45.311-.136.294-.123.169-.125-.332-.005-.617.33-.604.71l.006.176-.135-.001c-.166-.002-.176.028-.018.052.11.017.15.044.16.108.003.014.025.098.05.185.068.241.074.338.028.45-.064.154-.045.15.025-.005l.062-.138zm.925.098c.348-.149.586-.805.378-1.041a1 1 0 0 1-.134-.188c-.05-.097-.095-.127-.232-.154-.128-.024-.125-.016.058.161.411.398.242 1.122-.28 1.192-.123.017-.139.024-.085.04a.42.42 0 0 0 .295-.01m1.077 6.59c-.109-.02-.15-.06-.132-.132.062-.25-2.376-.388-2.574-.146-.183.224-.925.224-1.001 0-.056-.162.033-.25.278-.28.187-.023.183.002.195-1.253.011-1.279.002-1.414-.104-1.426-.131-.016.004-.38.154-.42.245-.062.61.016.702.15.128.187.718.27 1.62.226.46-.023.477-.027.521-.135.055-.134.479-.201.952-.151.326.034.392.25.118.384-.144.072-.136-.005-.156 1.425-.018 1.271-.013 1.351.094 1.351.244 0 .304.268.082.364-.097.043-.585.07-.75.042m.877-6.203c-.06-.057-.106-.161-.207-.47-.33-1.01-.603-1.62-.826-1.841-.135-.135-.154-.213-.052-.213.1 0 .262.094.344.201.04.053.112.14.16.192.157.173.731 1.508.828 1.925.06.26-.072.37-.247.206m-4.538-.927c.05-.375.34-1.067.538-1.287.235-.26.34-.229.198.059-.048.096-.16.351-.248.568-.263.643-.348.785-.468.785-.03 0-.034-.027-.02-.125m4.9-2.084c-.019-.02-1.518-.06-4.126-.11-2.802-.055-2.876-.06-2.92-.219-.07-.255 0-4.16.078-4.31.062-.121.266-.123 2.032-.016.711.043 1.74.103 2.286.133s1.293.073 1.659.095.984.05 1.372.061c.926.026.92.022.907.56-.004.168-.01 1.045-.013 1.949-.007 1.796 0 1.73-.156 1.82-.06.034-1.088.068-1.118.037" style="fill:#4e3723" transform="matrix(1 0 0 1.00468 1.383 0)"/><path d="M2.182 26.353c0-.146.21-1.24.309-1.61.03-.113.112-.113.77-.003l.907.149c.194.03.4.067.46.08.058.014.217.043.352.066.135.022.34.058.455.08s.274.05.353.063.173.03.209.038l.209.04c.506.096.6.123.6.173 0 .016-.019.242-.043.5l-.044.47H4.451c-2.143 0-2.269-.002-2.269-.046m6.248-.185c.006-.448.007-.449.489-.339l.474.107c.094.02.3.067.46.105.493.115.517.101.43-.245-.093-.36-.095-.364-.508-.876-.238-.296-.485-.621-.652-.86-.062-.09-.025-.22.106-.366.113-.126.137-.227.138-.574 0-.287.036-.377.15-.377.085 0 .333-.134.399-.214.047-.057.147-.11.363-.193l.297-.114.06.062q.062.06.15.061c.12 0 .346.277.382.47.08.416.057.784-.06.927-.09.11-.1.153-.121.473-.014.208-.035.323-.071.397-.029.058-.06.138-.07.179-.013.055-.12 1.463-.12 1.589 0 .01-.517.02-1.15.02h-1.15Zm3.68-.037c0-.25.007-.282.092-.474.14-.314.17-.571.235-2q.036-.795.074-.916c.077-.243-.213-.565-.428-.475-.123.052-.192.016-.302-.16a.5.5 0 0 0-.228-.22l-.127-.063.152-.09c.284-.168.415-.243.515-.294.055-.028.165-.095.245-.148l.253-.17c.06-.04.12-.073.137-.074.016 0 .06-.025.097-.055.119-.094.13-.056.109.391l-.019.409.166.28c.33.558.582.745 1.045.78.618.046.917.265.51.373q-.839.226-.293.409c.197.065.198.065.198.344 0 .293-.064 1.27-.118 1.814a8 8 0 0 0-.04.497v.11h-2.272Zm1.327-2.69c.134-.149.065-.323-.175-.446-.314-.16-.383-.107-.152.118l.137.134-.045.081c-.11.194.08.285.235.113m-3.419 2.497a1.4 1.4 0 0 0-.194-.05l-.561-.125a112 112 0 0 0-3.227-.66 123.968 123.968 0 0 0-3.971-.678 100 100 0 0 1-1.24-.197c-.416-.067-.357-.025-.435-.31l-.063-.234.074-.106c.04-.059.197-.278.346-.487a81 81 0 0 0 1.242-1.78l.374-.564a38 38 0 0 0 .763-1.197 37 37 0 0 0 1.144-2l.27-.544c.225-.456.328-.674.445-.944.096-.219.107-.212.214.13.558 1.773 1.232 3.463 1.403 3.518.19.061 1.724-.624 2.582-1.153a11.3 11.3 0 0 0 1.631-1.22c.317-.275.753-.717.956-.968.08-.098.18-.215.224-.26s.121-.142.17-.213l.202-.292c1.015-1.457 1.562-3.127 1.572-4.795v-.182l.093.018c.163.031.58.218.766.343.1.067.195.122.213.122.083 0 .687.704 1.079 1.259.067.094.126.083.34-.064.58-.398 1.535-.77 2.095-.815.635-.051.798-.021.842.155l.061.23c.038.135.036.143-.164.626-.55 1.332-1.278 2.735-1.846 3.564l-.25.367a16 16 0 0 1-.705.971c-.05.059-.159.192-.242.296-.969 1.209-2.36 2.485-3.518 3.226a15.2 15.2 0 0 1-4.155 1.847c-.37.101-.366.096-.21.358.32.535.655 1.005 1.479 2.07.22.285.276.392.33.636.023.106-.06.171-.129.102m-.546-.436a.5.5 0 0 0-.095-.162c-.68-.86-1.746-2.571-1.625-2.608.019-.006.176-.043.348-.082 4.704-1.07 8.573-4.603 10.818-9.879.245-.574.244-.574-.21-.523-.665.075-1.394.373-2.122.866-.322.218-.373.245-.373.198 0-.112-.611-.914-.927-1.216-.7-.671-.964-.734-.991-.237-.132 2.356-1.524 4.889-3.595 6.54-1.157.924-2.262 1.537-3.578 1.986-.564.192-.477.234-.77-.37-.4-.822-.6-1.333-.982-2.506-.168-.514-.175-.514-.43.018-.474.989-1.034 1.983-1.801 3.196-.161.254-1.09 1.637-1.304 1.94-.046.066-.26.37-.476.674-.472.669-.442.62-.407.662.028.034.086.046.747.15a236 236 0 0 1 2.377.385c.13.022.277.047.327.054l.366.064.575.102c.484.085 1.31.24 1.437.269.064.015.523.11 1.019.21.495.102 1.019.21 1.162.242.492.108.51.109.51.027m5.6-3.09a4 4 0 0 0-.465-.08c-.607-.074-.765-.136-.897-.352a3 3 0 0 0-.17-.237c-.103-.126-.108-.151-.136-.785l-.016-.34.11-.103c.06-.056.234-.2.386-.32q.351-.277.75-.645c.193-.18.244-.223.295-.25l.056-.03v.842c0 .463.008 1.033.017 1.266l.018.424.2.213c.339.358.274.531-.148.396m-8.583-3.107c-.072-.157-.17-.369-.219-.47-.21-.449-.639-1.64-.912-2.531a5 5 0 0 0-.138-.398 1 1 0 0 1-.063-.172c-.013-.07-.079-.068-.114.004a1 1 0 0 1-.057.093c-.016.02-.084.149-.151.287-.068.139-.14.284-.16.322a.3.3 0 0 0-.038.106.3.3 0 0 1-.062.112l-.061.076-.085-.354-.085-.354.017-.597c.01-.328.023-.65.03-.715a221.273 221.273 0 0 1 .43-4.717l.144-1.232c.05-.423.126-1.15.17-1.616.043-.467.084-.89.09-.941.031-.219.146-1.576.184-2.173.114-1.787.218-3.118.265-3.392.027-.16.11-.509.126-.524.021-.022 2.003-.022 2.08 0l.069.02.015.895c.016.877.07 1.814.178 3.054.156 1.796.069 3.705-.174 3.8-.19.073-.269-.054-.325-.527a5 5 0 0 0-.078-.438c-.094-.384-.153-1.474-.182-3.378-.023-1.547-.034-1.645-.168-1.51-.05.05-.062.127-.083.516-.013.228-.032.342-.076.45-.077.19-.081.21-.158.748-.114.795-.286 1.61-.442 2.094a6 6 0 0 0-.135.623c-.079.485-.19.953-.271 1.137a1.5 1.5 0 0 0-.082.43 4.4 4.4 0 0 1-.255 1.094c-.085.216-.132.426-.202.89-.054.367-.092.336.43.346.554.01.586 0 .563-.179a.85.85 0 0 1 .037-.338c.03-.113.073-.35.097-.524.023-.175.064-.396.092-.49.027-.095.074-.364.103-.597.092-.742.126-.869.208-.77.039.048.077.46.078.85.003.805.139 2.03.23 2.065.358.14.77.02.8-.232.024-.21.16-.572.278-.745.146-.211.152-.224.221-.544.064-.291.127-.45.238-.597.033-.044.085-.14.115-.212a.9.9 0 0 1 .135-.216.5.5 0 0 0 .104-.199 3 3 0 0 1 .151-.394c.07-.153.147-.367.173-.476.03-.123.118-.338.235-.57.103-.204.203-.419.221-.477.019-.058.079-.198.134-.31s.123-.308.15-.437c.079-.36.244-.743.412-.952.048-.06.122-.19.163-.291s.143-.326.225-.501c.081-.175.202-.447.267-.604.066-.158.183-.383.26-.501.078-.119.16-.282.183-.363s.086-.232.14-.334c.056-.102.142-.285.193-.407.05-.122.139-.295.196-.384.058-.09.13-.228.163-.309a1 1 0 0 1 .093-.185c.07-.078 1.202-.066 1.478.016q.13.038-.118.284a2 2 0 0 0-.437.759c-.046.171-.294.66-.403.793a.4.4 0 0 0-.094.16c0 .025-.052.155-.117.289a3 3 0 0 0-.272.852c-.04.303-.014.306.339.04.144-.11.277-.2.294-.203.017-.002.07-.007.117-.01a.6.6 0 0 0 .175-.05c.182-.088 1.11-.172 1.11-.1 0 .046-.316.11-.543.111-.464 0-.99.695-1.035 1.365-.036.523-.043.858-.067 3.193-.048 4.678-.038 4.452-.196 4.452-.141 0-.876.402-.876.48q.002.024.059.005c.452-.167.812.482.406.733-.358.221-.678-.068-.546-.492.08-.255.028-.279-.129-.059-.165.231.1.649.577.907.718.39.747.457.457 1.05a4 4 0 0 1-.221.41 5 5 0 0 0-.198.285 3 3 0 0 1-.187.261.1.1 0 0 0-.035.066c0 .02-.047.085-.105.143s-.104.127-.104.154-.037.083-.081.126a1.5 1.5 0 0 0-.16.192c-.118.173-.161.145-.177-.115l-.013-.211-1.542-.008c-.848-.004-1.578 0-1.624.007l-.082.015-.01.31c-.01.277-.018.326-.082.447-.057.107-.082.216-.123.53-.074.563-.123.857-.195 1.181a6 6 0 0 0-.081.425q-.033.259-.09.26a.3.3 0 0 0-.106.054c-.041.03-.155.083-.252.118s-.241.089-.32.12q-.27.105-.334.105c-.019 0-.094-.129-.167-.285m4.792-8.934c.217-.027.203.039.232-1.092l.03-1.123a.6.6 0 0 0-.069-.257l-.073-.15.041-.322c.083-.645.006-.977-.128-.552a2.3 2.3 0 0 1-.16.346 3.4 3.4 0 0 0-.203.463c-.098.285-.238.66-.354.949-.16.398-.182.454-.209.56a.8.8 0 0 1-.172.272c-.142.162-.143.165-.143.332 0 .165-.004.174-.13.324-.18.212-.175.23.077.256.17.017 1.11.013 1.261-.006m10.249 8.114c-.109-.018-.15-.06-.132-.131.043-.174-.517-.259-1.71-.258-.55 0-.799.033-.864.112-.183.224-.925.224-1.001 0-.056-.162.033-.25.278-.28.187-.023.183.002.195-1.253.011-1.279.002-1.414-.104-1.426-.131-.016.004-.38.154-.42.245-.062.61.016.702.15.128.187.718.27 1.62.226.46-.023.477-.027.521-.135.055-.134.479-.201.952-.151.326.034.392.25.118.384-.144.072-.136-.005-.156 1.425-.018 1.271-.013 1.351.094 1.351.244 0 .304.268.082.364-.097.043-.585.07-.75.042m-7.997-6.454.042-1.954c.079-3.652.149-5.739.197-5.866.018-.046.202-.111.65-.228.17-.044.375-.11.453-.147.227-.105.502-.083.502.041 0 .029-.07.187-.155.35l-.154.298-.015.822c-.009.452-.023 1.894-.032 3.206s-.02 2.389-.024 2.394c-.01.01-.124-.05-.143-.074-.044-.06-.591-.293-.78-.334-.3-.065-.334-.01-.235.393.014.055.015.115.004.132a1 1 0 0 0-.025.232c-.011.499-.203 1.484-.288 1.484-.008 0-.006-.337.003-.749m6.468.558c-.469-.038-.603-.155-.485-.425l.065-.15-.053-.216c-.047-.186-.05-.238-.026-.379.016-.09.04-.255.053-.368.03-.272.09-.365.283-.45.311-.136.294-.123.169-.125-.332-.005-.617.33-.604.71l.006.176h-.254c-.38 0-.496-.29-.282-.705.254-.493.346-.607.49-.607.11 0 .116-.003.116-.078 0-.1.032-.118.138-.08.068.026.125.024.289-.01.227-.048.255-.045.722.092.259.076.418.17.418.244 0 .03.132.217.256.363.31.364.166 1.163-.293 1.632-.378.384-.47.418-1.008.376m.452-.693c.348-.149.586-.805.378-1.041a1 1 0 0 1-.134-.188c-.05-.097-.095-.127-.232-.154-.128-.024-.125-.016.058.161.264.256.305.52.134.871-.125.26-.14.267-.486.267-.33 0-.341.008-.11.07.205.056.286.059.392.014m1.954.387c-.06-.057-.106-.161-.207-.47-.33-1.01-.603-1.62-.826-1.841-.135-.135-.154-.213-.052-.213.1 0 .262.094.344.201.04.053.112.14.16.192.157.173.731 1.508.828 1.925.06.26-.072.37-.247.206m-4.538-.927c.05-.375.34-1.067.538-1.287.235-.26.34-.229.198.059-.048.096-.16.351-.248.568-.263.643-.348.785-.468.785-.03 0-.034-.027-.02-.125m4.9-2.084c-.019-.02-1.518-.06-4.126-.11-2.802-.055-2.876-.06-2.92-.219-.07-.255 0-4.16.078-4.31.062-.121.266-.123 2.032-.016.711.043 1.74.103 2.286.133s1.293.073 1.659.095.984.05 1.372.061c.926.026.92.022.907.56-.004.168-.01 1.045-.013 1.949-.007 1.796 0 1.73-.156 1.82-.06.034-1.088.068-1.118.037M9.649 4.89c-.153-.173-.162-1.574-.027-3.924.028-.502.055-.793.076-.822.076-.105 2.074-.068 2.074.039 0 .06-.208.697-.28.858-.036.08-.082.209-.102.286s-.06.187-.089.245a8 8 0 0 0-.21.574 10 10 0 0 1-.26.7 3 3 0 0 0-.143.377c-.021.08-.073.204-.115.274s-.09.176-.105.236a.8.8 0 0 1-.111.225c-.046.064-.127.22-.181.348-.22.522-.403.724-.527.584m10.366-1.242a.5.5 0 0 0-.208-.04c-.153.003-.301-.045-.284-.091.007-.018 0-.04-.015-.05-.104-.065-.021-.094.266-.094.161 0 .339-.013.394-.029.127-.036.14-.022.1.116l-.04.147c-.018.084-.102.1-.213.041m-3.507-.354q-.53-.051.187-.161c.198-.03.39-.066.425-.08.085-.033.087-.032.087.025 0 .087-.098.18-.22.212-.125.032-.18.032-.479.004" style="fill:#45321b" transform="matrix(1 0 0 1.00468 1.383 0)"/><path d="M2.374 26.353c.03-.114.044-.206.093-.63.03-.248.076-.528.104-.623a3 3 0 0 0 .07-.297c.015-.108.026-.126.078-.126.062 0 1.46.226 1.958.317.158.03.464.084.68.122.9.158 1.34.248 1.358.275.007.012-.075.923-.09 1.002 0 .004-.96.007-2.132.007-2.017 0-2.13-.003-2.12-.047m7.542-.446a86 86 0 0 0-3.057-.647c-.165-.031-.406-.08-.536-.106-.129-.028-.305-.062-.392-.076l-.614-.11a147 147 0 0 0-3.657-.61 45 45 0 0 1-1.197-.198 3 3 0 0 1-.07-.24l-.064-.235.2-.279c1.103-1.546 1.904-2.73 2.556-3.777a30 30 0 0 0 .586-.985c0-.007.022-.045.049-.084.027-.038.105-.177.174-.309.07-.13.154-.283.188-.338a32 32 0 0 0 .927-1.894c.078-.169.079-.167.322.596.475 1.485 1.113 3.044 1.267 3.094.19.061 1.8-.652 2.586-1.147 1.071-.673 2.368-1.797 2.743-2.375a.5.5 0 0 1 .1-.11.8.8 0 0 0 .132-.164c.044-.07.126-.192.183-.272.935-1.31 1.551-3.041 1.589-4.465.016-.579.007-.556.193-.5.675.202 1.276.703 1.867 1.56.18.26.179.26.422.085.738-.532 1.956-.913 2.681-.84.245.024.22 0 .297.28.075.267.081.232-.152.793-.415 1-.8 1.79-1.246 2.557-.08.139-.16.276-.175.305a22 22 0 0 1-.97 1.47c-.026.037-.097.13-.158.207a.7.7 0 0 0-.111.168c0 .016-.034.06-.074.099-.04.038-.155.171-.253.295-.941 1.184-2.474 2.597-3.528 3.252a14.9 14.9 0 0 1-4.395 1.915c-.223.057.079.552 1.33 2.18.358.466.408.544.448.694.073.28.073.279-.191.211m-.445-.367c.038-.048.068 0-.363-.58a14 14 0 0 1-1.216-1.909c-.156-.295-.16-.333-.036-.334.08-.001.979-.238 1.313-.346 1.473-.478 3.086-1.302 4.095-2.093l.272-.21c2.153-1.648 4.152-4.352 5.394-7.295.238-.563.243-.538-.118-.531-.686.012-1.674.427-2.51 1.054-.053.04-.06.034-.179-.163-.486-.799-1.348-1.618-1.72-1.635l-.084-.004-.018.2c-.074.812-.11 1.049-.229 1.51-.717 2.783-2.64 5.095-5.423 6.524-.623.32-1.81.789-1.997.789-.132 0-.87-1.75-1.298-3.08-.148-.46-.163-.456-.446.132a22 22 0 0 1-.806 1.53c-.616 1.103-1.512 2.48-2.78 4.274-.489.693-.485.66-.08.718.251.037.474.07.711.11l.752.118c.323.05.652.104.731.118.165.03.303.054.94.16 1.058.178 1.386.24 2.927.544.773.153 1.428.291 1.881.397.199.046.25.046.287.002m3.868-2.663q-.344-.107-.719-.48c-.316-.315-.494-.464-.717-.601-.208-.128-.214-.145-.074-.216.061-.031.188-.1.282-.152l.258-.145a1 1 0 0 0 .144-.1 1 1 0 0 1 .173-.11 1 1 0 0 0 .161-.098c.093-.083.107-.02.087.408l-.019.409.166.281c.099.167.237.354.34.46.094.099.156.173.136.165q-.036-.017-.035.063c0 .125-.05.157-.183.116m1.733-.466a4 4 0 0 0-.465-.078c-.607-.075-.765-.137-.897-.353a3 3 0 0 0-.17-.237c-.103-.126-.108-.151-.136-.785l-.016-.34.11-.103c.06-.056.234-.2.386-.32q.351-.277.75-.645c.193-.18.244-.223.295-.25l.056-.03v.842c0 .463.008 1.033.017 1.266l.018.424.2.213c.339.358.274.531-.148.396m-8.484-2.934a24 24 0 0 0-.206-.445c-.33-.699-.57-1.349-1.023-2.78a4 4 0 0 0-.134-.37 1 1 0 0 1-.064-.141c-.059-.169-.17-.01-.498.715-.08.174-.102.167-.176-.057-.142-.427-.137-.733.048-2.957.191-2.289.236-2.782.271-2.981.021-.117.045-.278.053-.358s.067-.605.132-1.166c.064-.56.152-1.395.196-1.855.043-.459.102-1.067.13-1.35.067-.687.12-1.376.17-2.214.09-1.512.204-2.788.263-2.957.02-.056.043-.174.053-.261L5.82.14h.964c.748 0 .967.007.975.033.014.04.111 1.697.135 2.303.016.418.014.447-.04.55-.048.096-.055.153-.055.45v.339l.107.098.108.098-.018.867c-.018.846-.018.87.037.992.224.507.05 2.282-.18 1.827-.195-.388-.28-1.303-.342-3.688q-.048-1.81-.105-2.12a6 6 0 0 1-.048-.471c-.034-.53-.128-.523-.16.013-.018.3-.03.366-.104.534-.09.208-.131.41-.132.64 0 .08-.024.246-.054.37s-.082.392-.118.595c-.035.204-.087.46-.114.57s-.08.373-.116.584c-.079.462-.175.846-.275 1.1-.092.234-.122.378-.173.856-.046.433-.06.478-.184.632-.166.206-.2.357-.128.565.053.153.05.218-.026.458a3 3 0 0 0-.092.442c-.014.13-.056.321-.093.424-.119.335-.217 1.133-.145 1.178.064.04.608.049 1.033.016.413-.032.471-.03.71.014.676.126 1.056.049 1.056-.215 0-.068.085-.261.127-.287.013-.009.031-.056.04-.106a.31.31 0 0 1 .226-.255c.08-.022.103-.04.104-.086.002-.321.051-.53.194-.825.09-.183.158-.365.175-.466.02-.116.05-.19.104-.252a.7.7 0 0 0 .113-.197c.022-.06.076-.163.122-.228.06-.084.105-.203.158-.416.06-.241.12-.392.319-.788.26-.522.432-.908.564-1.27a1 1 0 0 1 .2-.356c.157-.177.26-.39.326-.674.051-.22.115-.36.235-.512a.8.8 0 0 0 .091-.252c.056-.276.24-.631.412-.797l.143-.137.019-.207c.016-.177.038-.244.15-.459a5 5 0 0 0 .217-.507c.048-.141.153-.39.232-.554s.144-.314.144-.333c0-.087 1.113-.146 1.164-.062.038.062-.025.17-.21.357-.21.213-.212.218-.232.515a.84.84 0 0 1-.116.397c-.056.11-.117.245-.134.3a.8.8 0 0 1-.134.22.5.5 0 0 0-.102.15c0 .017-.053.144-.116.284-.064.139-.194.507-.288.817-.095.31-.2.628-.235.707-.135.309-.18.68-.084.699.15.029.217-.05.291-.34a2 2 0 0 1 .133-.341c.05-.094.09-.185.09-.203 0-.144.484-.465.739-.49.31-.03.319.002.067.254-.346.347-.376.446-.427 1.416-.007.138-.025 1.366-.039 2.729-.048 4.678-.038 4.452-.196 4.452-.141 0-.876.402-.876.48q.002.024.059.005c.486-.18.817.516.359.755-.391.204-.643-.167-.414-.611q.024-.046-.006-.046c-.019 0-.026-.035-.02-.094l.012-.093-.123.123c-.169.168-.224.297-.185.43.033.11.21.336.212.27.001-.025.068.023.166.118.09.088.229.195.307.237.725.393.754.463.444 1.067-.104.201-.2.37-.213.375a.3.3 0 0 0-.076.111c-.06.118-.279.442-.315.464-.013.009-.024.033-.024.054s-.047.086-.105.144-.104.127-.104.154-.042.089-.093.139c-.052.05-.118.13-.147.178-.08.133-.111.095-.126-.155l-.013-.222-.118-.02c-.187-.032-3.232.013-3.266.048-.015.016-.045.148-.065.294s-.056.318-.079.382c-.085.238-.094.281-.115.567-.018.253-.033.317-.113.49-.139.297-.229.795-.229 1.264 0 .25-.002.253-.26.348l-.363.135c-.277.103-.307.102-.353-.005m4.91-9.086c.12-.121.165-3.767.05-4.057-.12-.305-.568.502-.665 1.198-.029.204-.039.23-.159.41a5 5 0 0 0-.257.527c-.217.493-.333.685-.442.731-.1.042-.135.14-.135.37 0 .25-.03.33-.195.51-.154.168-.169.207-.105.272.037.038.086.051.287.08.25.034 1.58.001 1.622-.041m10.032 8.094q-.16-.026-.132-.13c.016-.068-.063-.142-.155-.145-.051-.002-.051-.003-.002-.022.175-.07-.707-.167-1.436-.158l-.313.004.39.022c.565.03.544.038-.116.038-.63 0-.874.03-.942.114-.183.224-.925.224-1.001 0-.056-.162.033-.25.278-.28.187-.023.183.002.195-1.253.011-1.279.002-1.414-.104-1.426-.131-.016.004-.381.154-.42.245-.062.61.016.702.15.128.187.718.27 1.62.226.46-.023.477-.027.521-.135.055-.134.479-.202.952-.151.326.034.392.25.118.384-.144.072-.136-.005-.156 1.425-.018 1.271-.013 1.351.094 1.351.244 0 .304.267.082.364-.097.043-.585.07-.75.042m-7.997-6.454.042-1.954c.079-3.652.149-5.739.197-5.866.018-.046.202-.111.65-.228.17-.044.375-.11.453-.147.227-.105.502-.083.502.041 0 .029-.07.187-.155.35l-.154.298-.015.822c-.009.452-.023 1.894-.032 3.206s-.02 2.389-.024 2.394c-.01.01-.124-.05-.143-.074-.044-.06-.591-.293-.78-.334-.3-.065-.334-.01-.235.393.014.055.015.115.004.132a1 1 0 0 0-.025.232c-.011.499-.203 1.484-.288 1.484-.008 0-.006-.337.003-.749m6.468.558c-.469-.038-.603-.155-.485-.425l.065-.15-.053-.216c-.047-.186-.05-.238-.026-.379.016-.09.04-.255.053-.368.03-.272.09-.365.283-.45.311-.136.294-.123.169-.125-.332-.005-.617.33-.604.71l.006.176h-.254c-.38 0-.496-.29-.282-.705.254-.493.346-.607.49-.607.11 0 .116-.003.116-.078 0-.1.032-.118.138-.08.068.026.125.024.289-.01.227-.048.255-.045.722.092.259.076.418.17.418.244 0 .03.132.217.256.363.31.364.166 1.163-.293 1.632-.378.384-.47.418-1.008.376m.452-.693c.348-.149.586-.805.378-1.041a1 1 0 0 1-.134-.188c-.05-.097-.095-.127-.232-.154-.128-.024-.125-.016.058.161.304.294.302.818-.004 1.087l-.058.051.058-.076c.087-.117.068-.138-.039-.043l-.095.085-.25-.013a2 2 0 0 1-.31-.033c-.092-.03-.071.032.026.078.227.106.472.141.602.086m1.954.387c-.06-.057-.106-.161-.207-.47-.33-1.01-.603-1.62-.826-1.841-.135-.135-.154-.213-.052-.213.1 0 .262.094.344.201.04.053.112.14.16.192.157.173.731 1.508.828 1.925.06.26-.072.37-.247.206m-4.538-.927c.05-.375.34-1.067.538-1.287.235-.26.34-.229.198.059-.048.096-.16.351-.248.568-.263.643-.348.785-.468.785-.03 0-.034-.027-.02-.125M6.787 10.234c-.168-.036-.204-.123-.113-.273.027-.046.081-.182.12-.303.041-.131.082-.216.1-.21.062.02.213.704.166.752-.03.03-.193.051-.273.034m15.983-.962c-.02-.02-1.52-.06-4.127-.11-2.802-.055-2.876-.06-2.92-.219-.07-.255 0-4.16.078-4.31.062-.121.266-.123 2.032-.016.711.043 1.74.103 2.286.133s1.293.073 1.659.095.984.05 1.372.061c.926.026.92.022.907.56-.004.168-.01 1.045-.013 1.949-.007 1.796 0 1.73-.156 1.82-.06.034-1.088.068-1.118.037M9.687 4.547c-.082-.182-.01-3.722.087-4.32L9.788.14h.882c1.015 0 1.034.004.894.166a.45.45 0 0 0-.109.263c-.044.286-.155.66-.273.922a3 3 0 0 0-.132.332c-.01.043-.045.133-.077.199a1.5 1.5 0 0 0-.088.229 1 1 0 0 1-.188.302l-.16.193.018.16c.017.15.012.171-.087.372a2 2 0 0 0-.119.281.7.7 0 0 1-.109.192.66.66 0 0 0-.131.304c-.091.456-.32.722-.422.492" style="fill:#35470a" transform="matrix(1 0 0 1.00468 1.383 0)"/><path d="M2.374 26.353c.03-.114.044-.206.093-.63.03-.248.076-.528.104-.623a3 3 0 0 0 .07-.297c.015-.108.026-.126.078-.126.062 0 1.46.226 1.958.317.158.03.464.084.68.122.9.158 1.34.248 1.358.275.007.012-.075.923-.09 1.002 0 .004-.96.007-2.132.007-2.017 0-2.13-.003-2.12-.047m7.542-.446a86 86 0 0 0-3.057-.647c-.165-.031-.406-.08-.536-.106-.129-.028-.305-.062-.392-.076l-.614-.11a147 147 0 0 0-3.657-.61 45 45 0 0 1-1.197-.198 3 3 0 0 1-.07-.24l-.064-.235.2-.279c1.103-1.546 1.904-2.73 2.556-3.777a30 30 0 0 0 .586-.985c0-.007.022-.045.049-.084.027-.038.105-.177.174-.309.07-.13.154-.283.188-.338a32 32 0 0 0 .927-1.894c.078-.169.079-.167.322.596.475 1.485 1.113 3.044 1.267 3.094.19.061 1.8-.652 2.586-1.147 1.071-.673 2.368-1.797 2.743-2.375a.5.5 0 0 1 .1-.11.8.8 0 0 0 .132-.164c.044-.07.126-.192.183-.272.935-1.31 1.551-3.041 1.589-4.465.016-.579.007-.556.193-.5.675.202 1.276.703 1.867 1.56.18.26.179.26.422.085.738-.532 1.956-.913 2.681-.84.245.024.22 0 .297.28.075.267.081.232-.152.793-.415 1-.8 1.79-1.246 2.557-.08.139-.16.276-.175.305a22 22 0 0 1-.97 1.47c-.026.037-.097.13-.158.207a.7.7 0 0 0-.111.168c0 .016-.034.06-.074.099-.04.038-.155.171-.253.295-.941 1.184-2.474 2.597-3.528 3.252a14.9 14.9 0 0 1-4.395 1.915c-.223.057.079.552 1.33 2.18.358.466.408.544.448.694.073.28.073.279-.191.211m-.445-.367c.038-.048.068 0-.363-.58a14 14 0 0 1-1.216-1.909c-.156-.295-.16-.333-.036-.334.08-.001.979-.238 1.313-.346 1.473-.478 3.086-1.302 4.095-2.093l.272-.21c2.153-1.648 4.152-4.352 5.394-7.295.238-.563.243-.538-.118-.531-.686.012-1.674.427-2.51 1.054-.053.04-.06.034-.179-.163-.486-.799-1.348-1.618-1.72-1.635l-.084-.004-.018.2c-.074.812-.11 1.049-.229 1.51-.717 2.783-2.64 5.095-5.423 6.524-.623.32-1.81.789-1.997.789-.132 0-.87-1.75-1.298-3.08-.148-.46-.163-.456-.446.132a22 22 0 0 1-.806 1.53c-.616 1.103-1.512 2.48-2.78 4.274-.489.693-.485.66-.08.718.251.037.474.07.711.11l.752.118c.323.05.652.104.731.118.165.03.303.054.94.16 1.058.178 1.386.24 2.927.544.773.153 1.428.291 1.881.397.199.046.25.046.287.002m3.868-2.663c-.21-.066-.66-.346-.554-.346.08 0 .088-.109.016-.207-.134-.185-.183-.203-.224-.083-.027.077-.03.079-.078.035-.049-.045-.048-.047.016-.116.08-.084.08-.108.013-.307-.09-.262-.11-.567-.041-.643.048-.054.223-.163.263-.163.008 0 .014.17.014.379 0 .442.038.63.168.827.048.072.101.16.118.193s.11.113.205.177c.27.18.28.19.241.238-.036.044-.059.047-.157.016m-6.751-3.4a24 24 0 0 0-.206-.445c-.33-.699-.57-1.349-1.023-2.78a4 4 0 0 0-.134-.37 1 1 0 0 1-.064-.141c-.059-.169-.17-.01-.498.715-.08.174-.102.167-.176-.057-.142-.427-.137-.733.048-2.957.191-2.289.236-2.782.271-2.981.021-.117.045-.278.053-.358s.067-.605.132-1.166c.064-.56.152-1.395.196-1.855.043-.459.102-1.067.13-1.35.067-.687.12-1.376.17-2.214.09-1.512.204-2.788.263-2.957.02-.056.043-.174.053-.261L5.82.14h.964c.748 0 .967.007.975.033.014.04.111 1.697.135 2.303.016.418.014.447-.04.55-.048.096-.055.153-.055.45v.339l.107.098.108.098-.018.867c-.018.846-.018.87.037.992.224.507.05 2.282-.18 1.827-.195-.388-.28-1.303-.342-3.688q-.048-1.81-.105-2.12a6 6 0 0 1-.048-.471c-.034-.53-.128-.523-.16.013-.018.3-.03.366-.104.534-.09.208-.131.41-.132.64 0 .08-.024.246-.054.37s-.082.392-.118.595c-.035.204-.087.46-.114.57s-.08.373-.116.584c-.079.462-.175.846-.275 1.1-.092.234-.122.378-.173.856-.046.433-.06.478-.184.632-.166.206-.2.357-.128.565.053.153.05.218-.026.458a3 3 0 0 0-.092.442c-.014.13-.056.321-.093.424-.119.335-.217 1.133-.145 1.178.064.04.608.049 1.033.016.413-.032.471-.03.71.014.676.126 1.056.049 1.056-.215 0-.068.085-.261.127-.287.013-.009.031-.056.04-.106a.31.31 0 0 1 .226-.255c.08-.022.103-.04.104-.086.002-.321.051-.53.194-.825.09-.183.158-.365.175-.466.02-.116.05-.19.104-.252a.7.7 0 0 0 .113-.197c.022-.06.076-.163.122-.228.06-.084.105-.203.158-.416.06-.241.12-.392.319-.788.26-.522.432-.908.564-1.27a1 1 0 0 1 .2-.356c.157-.177.26-.39.326-.674.051-.22.115-.36.235-.512a.8.8 0 0 0 .091-.252c.056-.276.24-.631.412-.797l.143-.137.019-.207c.016-.177.038-.244.15-.459a5 5 0 0 0 .217-.507c.048-.141.153-.39.232-.554s.144-.314.144-.333c0-.087 1.113-.146 1.164-.062.038.062-.025.17-.21.357-.21.213-.212.218-.232.515a.84.84 0 0 1-.116.397c-.056.11-.117.245-.134.3a.8.8 0 0 1-.134.22.5.5 0 0 0-.102.15c0 .017-.053.144-.116.284-.064.139-.194.507-.288.817-.095.31-.2.628-.234.706-.066.149-.146.47-.146.58 0 .036-.015.073-.033.082-.16.08-.314.257-.302.347a.3.3 0 0 1-.029.105c-.05.123-.103.41-.146.783-.046.397-.07.465-.17.486-.19.038-.487.736-.561 1.318a.8.8 0 0 1-.122.288 6 6 0 0 0-.283.57c-.215.49-.331.682-.44.727-.1.042-.135.14-.135.37 0 .25-.03.33-.195.51-.19.21-.183.287.032.334.122.026 1.609.027 1.724.001.129-.029.153.046.187.576.036.554.07.776.132.874.048.073.048.076-.004.147-.063.087-.054.168.02.18.067.009.12-.05.125-.14.004-.08.036-.084.143-.022.179.104.314-.04.347-.368l.062-.605c.021-.211.058-.527.08-.702.037-.273.038-.337.008-.45-.028-.107-.036-.592-.037-2.438-.002-1.676-.01-2.338-.033-2.425l-.079-.295c-.04-.146-.042-.186-.015-.239.018-.035.052-.14.076-.234s.084-.247.133-.341c.05-.094.09-.185.09-.203 0-.11.47-.458.654-.483l.11-.015-.049.077c-.026.042-.146.212-.266.378a4 4 0 0 0-.24.357c-.022.054-.083 3.371-.12 6.457-.011.965-.025 1.375-.046 1.401-.016.02-.169.132-.339.247-.74.503-.9.782-.632 1.1.17.203.189.288.081.387-.137.128-.145.176-.172.981-.051 1.52.214 1.317-1.742 1.332-1.987.015-1.786-.022-1.823.333a2.2 2.2 0 0 1-.133.552c-.024.065-.053.25-.064.41-.017.255-.031.317-.112.49-.139.298-.229.796-.229 1.265 0 .249-.002.253-.26.348l-.363.135c-.277.103-.307.102-.353-.005m14.537-1.36c-.192-.047-.904-.09-1.495-.091-.535 0-1.037-.036-1.115-.078-.176-.095-.185-2.536-.01-2.683.1-.083 3.377.02 3.465.11.035.036.06 2.102.03 2.436q-.046.511-.875.306m-9.02-4.836q-.048-.027-.047-.13c0-.102-.013-.125-.113-.195-.065-.046-.018-.23.078-.308.244-.194.544.196.388.503-.063.124-.21.187-.307.13m7.765-1.539c-.185-.05-.317-.395-.26-.677.064-.308.464-.573.687-.454.753.4.393 1.354-.427 1.131M6.787 10.234c-.168-.036-.204-.123-.113-.273.027-.046.081-.182.12-.303.041-.131.082-.216.1-.21.062.02.213.704.166.752-.03.03-.193.051-.273.034m14.926-1.323a147 147 0 0 0-2.247-.05c-2.983-.052-3.243-.071-3.325-.246-.115-.244-.044-3.535.078-3.659.059-.06 1.256-.057 2.07.005.587.045 1.18.079 1.87.107 2.688.112 3.39.178 3.488.33.09.139.188 3.14.11 3.33-.083.202-.596.247-2.044.183M9.687 4.547c-.082-.182-.01-3.722.087-4.32L9.788.14h.882c1.015 0 1.034.004.894.166a.45.45 0 0 0-.109.263c-.044.286-.155.66-.273.922a3 3 0 0 0-.132.332c-.01.043-.045.133-.077.199a1.5 1.5 0 0 0-.088.229 1 1 0 0 1-.188.302l-.16.193.018.16c.017.15.012.171-.087.372a2 2 0 0 0-.119.281.7.7 0 0 1-.109.192.66.66 0 0 0-.131.304c-.091.456-.32.722-.422.492" style="fill:#342c16" transform="matrix(1 0 0 1.00468 1.383 0)"/><path d="M9.707 25.826c-1.235-.291-2.737-.595-4.755-.962a160 160 0 0 0-2.874-.477l-.432-.068-.728-.114-.44-.071-.048-.186c-.068-.265-.068-.267.124-.53.177-.241.957-1.345 1.208-1.709a76 76 0 0 0 1.349-2.053c.184-.297.587-.971.587-.985 0-.008.021-.046.048-.084.026-.039.099-.166.161-.283s.17-.313.24-.437c.13-.23.713-1.415.844-1.716.09-.204.092-.204.16.014.534 1.682.793 2.373 1.206 3.213.208.423.194.417.575.29 1.236-.415 2.222-.962 3.5-1.941.595-.457 1.51-1.416 1.877-1.966l.196-.292c.898-1.313 1.52-3.235 1.474-4.55-.01-.263-.02-.255.209-.183.288.091.43.168.794.429.241.172.865.888 1.076 1.233.073.12.13.116.338-.025.873-.592 2.015-.947 2.748-.854l.147.018.058.204c.077.272.08.25-.117.734-.31.76-.768 1.727-1.07 2.261a3 3 0 0 0-.094.176c0 .005-.066.12-.147.256l-.19.324c-1.237 2.197-3.535 4.538-5.667 5.778a15.4 15.4 0 0 1-3.761 1.526c-.243.062-.051.397 1.127 1.97.056.075.213.277.349.45.227.29.346.527.346.693 0 .017.028.023-.418-.083m-.214-.253c.053-.054.035-.11-.077-.247-.117-.144-.46-.607-.666-.9a17 17 0 0 1-.59-.941c-.318-.565-.392-.715-.356-.725.019-.006.263-.066.542-.135 4.545-1.114 8.316-4.572 10.524-9.647.331-.762.333-.781.067-.781-.697 0-1.916.485-2.576 1.026-.101.082-.098.084-.235-.136-.453-.724-1.076-1.345-1.577-1.57-.266-.119-.257-.132-.295.401-.112 1.564-.82 3.344-1.893 4.757-1.041 1.372-2.889 2.749-4.614 3.44-.367.147-1.029.375-1.088.375-.111 0-.754-1.5-1.158-2.7-.306-.91-.285-.905-.655-.156a25 25 0 0 1-1.004 1.863A49 49 0 0 1 1.8 22.65c-.83 1.16-.951 1.355-.874 1.403.023.015.233.05 1.125.187a107 107 0 0 1 1.157.185 163 163 0 0 1 2.188.373c.427.075 1.09.204 1.868.362.431.087.872.176.98.196s.396.084.64.14c.493.114.563.123.609.077m3.3-3.298c-.205-.268-.26-.416-.28-.776l-.018-.287.102-.066c.136-.089.13-.104.15.379.02.456.044.557.178.759.074.111.095.194.05.194-.014 0-.096-.092-.182-.203m7.744-4.278c-.244-.012-.793-.03-1.218-.04-.426-.009-.79-.026-.81-.039-.056-.035-.053-2.585.003-2.624.025-.017.211-.022.523-.012.265.008.994.028 1.62.044.625.016 1.171.038 1.214.048l.079.02-.009 1.283c-.005.786-.018 1.293-.033 1.31-.033.034-.79.04-1.369.01M4.52 15.857c-.129-.028-.12-.41.052-2.441.048-.576.12-1.44.158-1.922.04-.48.08-.9.093-.934l.022-.059 3.22.014c1.772.008 3.283.02 3.359.028.172.018.158-.06.17.972.012.99-.009.938.301.748a1.5 1.5 0 0 1 .28-.146c.066 0 .267-.206.332-.34l.06-.124.003-3.405c.003-3.771.01-3.982.155-4.206.126-.195.146 2.444.033 4.471-.016.29-.025 1.14-.022 1.94l.007 1.422-.192.124c-.532.34-.954.686-1.085.887-.075.115-.08.087.062.29.051.072.065 2.308.015 2.531-.034.153.068.148-3.3.154l-3.018.006-.027-.087c-.055-.172-.12-.174-.215-.006l-.06.106-.163-.003a2 2 0 0 1-.24-.02m7.622-2.618c-.02-.008-.032-.064-.032-.145a.33.33 0 0 0-.054-.205c-.1-.137.036-.287.205-.226.21.076.238.473.04.564-.067.031-.105.034-.159.012m7.81-1.559c-.211-.067-.29-.199-.291-.482 0-.375.383-.687.643-.523.604.38.311 1.215-.352 1.005m2.817-2.804c-.012-.012-1.194-.051-2.952-.098-3.733-.1-3.631-.09-3.631-.306 0-.19.07-.217.265-.105.242.14.443.06.447-.181.003-.26-.235-.361-.448-.19-.249.201-.243.236-.24-1.333 0-1.16.008-1.437.042-1.61.024-.122.653-.1 5.63.202 1.657.1 1.664.101 1.708.146.09.091.098 3.332.008 3.423-.044.045-.787.091-.829.052m.533-.206c.16-.127.189-.304.07-.424-.24-.244-.528.115-.299.373.109.122.134.127.23.051m-2.313-.08c.213-.075.112-.554-.116-.554-.263 0-.334.514-.08.565.099.02.113.019.196-.01m.807-.04c.157-.102.164-.244.018-.383-.183-.175-.484.074-.374.308.067.14.21.171.356.076m.849.013c.106-.057.087-.255-.033-.346-.189-.143-.39-.075-.39.132 0 .238.196.337.423.214m-5.004-.094c.297-.319-.034-.738-.343-.434-.139.136-.13.232.036.4.155.157.19.16.307.034m.847-.006c.199-.201.092-.453-.193-.453-.19 0-.256.093-.217.304.044.238.249.313.41.15m.852-.016c.186-.19-.035-.541-.27-.428-.19.092-.23.28-.088.429.121.127.232.126.358-.001m.864-.293c.251-.179.125-.621-.178-.621-.242 0-.39.277-.27.51.07.14.32.202.448.111m3.164-.353c.173-.164.075-.466-.151-.466-.147 0-.215.074-.232.247-.024.253.208.385.383.219m-.74-.09a.23.23 0 0 0-.136-.38c-.253-.047-.388.122-.28.353.086.182.277.194.417.027m-1.574.028c.073-.1.074-.366.002-.447-.115-.13-.455.013-.455.191 0 .257.32.438.453.256m.733.03c.24-.192.153-.527-.13-.494-.272.03-.35.301-.138.482.096.082.176.085.268.012m-2.482-.127c.092-.097.12-.265.059-.36-.097-.15-.411-.133-.45.024-.07.284.211.526.391.336m-1.68-.048q.188-.163.117-.34c-.079-.19-.357-.214-.446-.038-.144.281.105.568.328.378m.876-.019c.202-.205.043-.505-.24-.45-.208.039-.262.313-.092.467.114.103.218.098.332-.017m-1.716-.015c.145-.042.17-.139.082-.315-.11-.218-.381-.234-.487-.028-.123.242.101.431.405.343m6.562-.578c.228-.207.03-.583-.235-.444-.158.083-.187.308-.057.44.097.098.187.1.292.004m-.768 0c.167-.107.077-.509-.113-.509-.223 0-.327.317-.146.446.116.082.199.102.26.063m-.814-.059c.222-.109.177-.435-.067-.49-.278-.062-.389.408-.122.517.078.031.067.033.189-.027m-.71-.08c.115-.128.12-.208.02-.321-.122-.14-.4-.109-.438.048-.071.287.23.485.418.274m-1.67-.088c.114-.11.117-.173.012-.294-.168-.194-.494-.135-.494.09 0 .267.288.389.481.204m-1.765.033c.221-.078.196-.417-.04-.517-.179-.076-.323.02-.323.215 0 .227.172.37.363.302m.866-.01c.199-.105.107-.423-.145-.5-.085-.026-.215.072-.25.188-.074.252.158.435.395.311m1.712-.01c.178-.11.182-.334.01-.508-.125-.127-.182-.13-.328-.019-.172.132-.192.208-.11.425.055.144.275.196.428.102m-3.452-.03c.143-.055.21-.27.132-.425-.09-.176-.307-.173-.503.009-.178.164.13.51.37.417m6.634-.558c.198-.158-.075-.603-.284-.464-.13.086-.187.337-.097.42.115.106.28.125.381.044m-.758-.075c.155-.143.15-.254-.015-.375-.218-.16-.369-.092-.37.167 0 .272.2.38.385.208m-.76-.032c.095-.116.023-.385-.12-.45-.08-.038-.232.025-.294.122-.146.225.245.534.414.328m-.844-.039c.142-.14.035-.488-.15-.488-.156 0-.332.277-.249.392.136.186.273.22.399.096m-1.681-.075a.27.27 0 0 0-.078-.45c-.172-.083-.266-.04-.306.138-.072.326.173.525.384.312m-.8-.059c.184-.18-.03-.531-.287-.474-.24.054-.218.402.032.526.1.05.165.036.255-.052m-.915.003c.243-.127.172-.516-.094-.516-.101 0-.323.182-.323.264 0 .168.269.33.417.252m-.766-.096c.139-.132.01-.473-.18-.473-.182 0-.343.209-.274.356.09.193.313.25.454.117" style="fill:#24190b" transform="matrix(1 0 0 1.00468 1.383 0)"/><path d="M20.276 17.943c-1.253-.045-1.688-.071-1.726-.103-.046-.04-.058-2.324-.012-2.41.045-.085 1.74-.09 3.107-.01l.272.015-.019 1.22c-.01.71-.029 1.241-.044 1.27-.03.055-.423.06-1.578.018m-15.74-2.24-.063-.044.017-.519c.009-.285.045-.847.08-1.248.037-.4.102-1.2.146-1.775.083-1.086.124-1.539.144-1.558s1.212.076 1.29.104c.12.042.14.125.154.637l.013.469-.122.127c-.138.145-.137.14-.158.499-.023.388-.116.43-.12.053-.004-.422-.162-.606-.216-.251-.04.264-.004 1.373.048 1.43.093.105-.1.296-.221.22-.04-.025-.068-.026-.116-.004l-.064.03-.009.825c-.01.956-.014.976-.2.951-.087-.012-.109-.005-.133.042-.04.075-.37.083-.47.012m6.511.016c-.176-.053-.201-.29-.138-1.31.034-.542.041-.568.178-.644a.5.5 0 0 0 .177-.18c.193-.333.229-.162.209.99-.022 1.232-.033 1.262-.426 1.144m-.07-2.546c-.053-.077-.053-.187 0-.369.035-.116.04-.211.027-.49-.018-.383-.02-.373.17-.587q.1-.111.1-.187c0-.041.018-.098.039-.127a.23.23 0 0 0 .04-.113c0-.085.057-.06.083.037a6 6 0 0 1 .043.579c.021.498.022.5.091.562.125.109.086.168-.196.297-.144.065-.179.093-.192.155-.062.29-.123.361-.205.243m9.029-1.518c-.34-.111-.413-.52-.145-.81.195-.213.298-.229.498-.08.46.344.174 1.063-.353.89M22.48 8.82c-.013-.013-.914-.042-2.91-.094a24 24 0 0 1-1.104-.043c-.066-.018-.078-.083-.02-.106.212-.082.23-.445.029-.57-.32-.197-.582.158-.353.48.106.148.08.17-.206.182-.325.012-.355-.016-.215-.206.267-.363-.09-.762-.415-.464-.179.164-.16.3.077.53.128.123.113.127-.399.108-.593-.022-.683-.037-.694-.116-.014-.095.095-.13.23-.076.228.092.407.004.436-.215.038-.284-.206-.44-.487-.312-.145.066-.189.025-.194-.181-.004-.2.026-.227.186-.168.414.15.656-.097.412-.422-.087-.115-.17-.135-.339-.08-.237.075-.291.035-.269-.201.02-.198.065-.229.209-.143.255.151.464.046.485-.244.021-.301-.164-.409-.464-.268-.206.096-.206.095-.227-.037-.056-.346.042-.528.195-.365.232.248.65.013.508-.286-.113-.237-.317-.28-.51-.109a.7.7 0 0 1-.138.106c-.022 0 .006-.443.031-.483.026-.043 2.656.088 5.98.297 1.32.083 1.267.07 1.267.32 0 .144-.048.194-.128.135-.226-.167-.328-.18-.43-.056-.224.269-.089.553.244.516.322-.036.3-.045.309.115.012.21-.062.27-.197.163-.187-.149-.481.04-.442.285.044.278.292.367.49.176.094-.091.132-.037.148.21.016.253-.02.292-.164.177-.262-.212-.588.057-.44.363.097.203.25.225.487.069.106-.07.121-.026.127.376.01.632.006.649-.16.649-.16 0-.179-.036-.073-.137.282-.27.061-.725-.257-.528-.189.117-.2.301-.031.5.078.091.094.125.068.142-.036.023-.63.033-.652.01m-1.39-.233c.107-.108.065-.39-.075-.51-.23-.197-.573.205-.383.45.097.124.36.159.458.06m.67.03c.236-.123.26-.334.054-.498-.176-.14-.428.012-.428.258 0 .206.197.333.374.24m.879-.01c.249-.13.076-.49-.236-.49-.149 0-.209.058-.224.217-.025.254.22.4.46.274m-3.37-.052c.224-.118.242-.378.037-.542-.13-.104-.327-.042-.416.131-.119.235.153.53.379.41m.9-.342c.194-.083.28-.37.157-.536-.185-.253-.432-.247-.605.014-.186.28.135.654.447.522m.848-.378c.12-.085.175-.363.1-.513-.116-.233-.54-.097-.54.173 0 .241.277.456.44.34m.768-.024c.291-.2.216-.569-.116-.569-.336 0-.418.4-.12.584.109.067.119.066.236-.015m.75.028c.194-.102.246-.326.107-.466-.144-.147-.432-.1-.494.082-.084.242.173.496.387.384m-3.206-.167c.272-.262-.012-.671-.345-.497-.174.091-.138.423.058.546.101.063.186.05.287-.049m-1.67-.054c.192-.184.189-.417-.008-.52-.354-.186-.624.355-.284.568.105.066.187.052.292-.048m.827.024c.267-.19.153-.559-.172-.559-.327 0-.388.463-.079.599.09.039.154.029.25-.04m4.141-.655c.215-.218-.016-.661-.274-.526-.145.076-.207.317-.111.433.105.127.305.174.385.093m-1.564-.099c.2-.202.126-.449-.144-.486-.37-.05-.463.38-.12.56.114.06.138.054.264-.074m.697.086c.104-.054.2-.164.2-.23 0-.251-.29-.443-.46-.303-.259.213-.029.684.26.533m-2.421-.131c.188-.119.216-.261.08-.412-.154-.17-.455-.151-.531.033-.11.267.205.532.45.379m-1.68-.028c.149-.077.193-.278.096-.44-.137-.227-.457-.217-.526.019-.08.272.195.543.43.421m.837 0a.27.27 0 0 0 .106-.117c.159-.339-.351-.637-.52-.304-.147.287.12.557.414.42m1.715-.01c.231-.121.196-.485-.062-.647-.112-.07-.177-.05-.343.107-.302.282.037.733.405.54m2.446-.685c.175-.178.135-.362-.105-.478-.215-.103-.356-.012-.356.227 0 .343.24.474.46.25m-.808.023c.193-.137.066-.57-.168-.57-.145 0-.295.131-.295.258 0 .253.28.442.463.312m-.813-.077c.254-.258-.038-.693-.32-.475-.182.14-.212.298-.081.424.177.17.272.182.401.05m-1.672-.08c.236-.24-.029-.65-.341-.529-.11.043-.158.334-.08.487.084.165.28.185.42.042m-.81-.053c.206-.208.042-.545-.265-.545-.291 0-.331.402-.057.58.125.081.217.071.322-.035m-.875-.023c.187-.128.19-.331.009-.493-.138-.123-.25-.1-.427.086-.227.24.14.597.418.407" style="fill:#100e06" transform="matrix(1 0 0 1.00468 1.383 0)"/></svg>