<svg xmlns="http://www.w3.org/2000/svg" viewBox="0 0 200 200"><path fill="#194d33" fill-rule="evenodd" d="M163.952 22.253c-5.003 3.372-7.419 8.212-7.419 14.865 0 5.342.375 6.188 7.234 16.313C167.745 59.304 171 64.506 171 64.99s.478 2.136 1.061 3.671c1.061 2.789 1.063 2.787 3.357-2.857 1.263-3.107 4.321-8.496 6.796-11.976s5.24-7.768 6.143-9.528c3.655-7.12.761-17.282-6.27-22.02-4.71-3.174-13.446-3.187-18.135-.027M34.527 70.273c-4.664 4.664-4.877 9.531-.604 13.804s9.14 4.06 13.804-.604c3.119-3.119 3.457-3.95 2.931-7.196-.76-4.68-4.255-8.175-8.935-8.935-3.246-.526-4.077-.188-7.196 2.931M156 75.962c-22.481 4.815-33.757 13.061-34.783 25.435-.53 6.392 1.058 9.893 7.889 17.392 6.056 6.648 6.94 10.418 3.911 16.675-5.307 10.963-27.205 23.297-58.941 33.199-6.367 1.987-12.161 4.074-12.877 4.639-1.739 1.373-1.12 5.733 1.003 7.062 3.613 2.262 42.903-11.971 58.081-21.04 9.761-5.832 19.019-14.567 21.699-20.474 4.094-9.022 1.959-17.477-6.876-27.233-5.699-6.293-6.324-9.108-3.171-14.279 2.537-4.16 13.98-9.679 24.565-11.847 12.808-2.623 12.962-2.692 13.336-5.96.223-1.946-.262-3.369-1.441-4.232-2.155-1.575-1.879-1.59-12.395.663m-136.991 32.02-9.001 17.981 3.956 2.019c2.176 1.11 4.194 2.018 4.485 2.018s2.537-3.937 4.99-8.75l4.46-8.75.05 34.25L28 181h12v-21.5c0-13.667.364-21.5 1-21.5s1 7.833 1 21.5V181h12l.05-33.75.05-33.75 4.067 8c2.237 4.4 4.249 8.197 4.472 8.439.223.241 2.449-.555 4.948-1.769l4.542-2.207-9.314-17.975L53.5 90.012l-12.745-.006L28.011 90z"/></svg>